<?xml version="1.0" encoding="UTF-8" standalone="no"?>
<!-- Created with Inkscape (http://www.inkscape.org/) -->

<svg
   xmlns:dc="http://purl.org/dc/elements/1.1/"
   xmlns:cc="http://creativecommons.org/ns#"
   xmlns:rdf="http://www.w3.org/1999/02/22-rdf-syntax-ns#"
   xmlns:svg="http://www.w3.org/2000/svg"
   xmlns="http://www.w3.org/2000/svg"
   xmlns:sodipodi="http://sodipodi.sourceforge.net/DTD/sodipodi-0.dtd"
   xmlns:inkscape="http://www.inkscape.org/namespaces/inkscape"
   width="1750"
   height="400"
   viewBox="0 0 463.02084 105.83334"
   version="1.1"
   id="svg8"
   inkscape:version="0.92.4 (5da689c313, 2019-01-14)"
   sodipodi:docname="BB full logo.svg"
   inkscape:export-filename="C:\Users\lee\bitmap.png"
   inkscape:export-xdpi="20.425533"
   inkscape:export-ydpi="20.425533">
  <defs
     id="defs2">
    <clipPath
       id="clipPath833"
       clipPathUnits="userSpaceOnUse">
      <path
         inkscape:connector-curvature="0"
         id="path831"
         d="M 0,2000 H 2000 V 0 H 0 Z" />
    </clipPath>
  </defs>
  <sodipodi:namedview
     id="base"
     pagecolor="#ffffff"
     bordercolor="#666666"
     borderopacity="1.0"
     inkscape:pageopacity="1"
     inkscape:pageshadow="2"
     inkscape:zoom="0.7"
     inkscape:cx="902.23708"
     inkscape:cy="253.01583"
     inkscape:document-units="mm"
     inkscape:current-layer="layer2"
     showgrid="false"
     inkscape:window-width="1920"
     inkscape:window-height="1017"
     inkscape:window-x="-8"
     inkscape:window-y="-8"
     inkscape:window-maximized="1"
     units="px" />
  <metadata
     id="metadata5">
    <rdf:RDF>
      <cc:Work
         rdf:about="">
        <dc:format>image/svg+xml</dc:format>
        <dc:type
           rdf:resource="http://purl.org/dc/dcmitype/StillImage" />
        <dc:title></dc:title>
      </cc:Work>
    </rdf:RDF>
  </metadata>
  <g
     inkscape:groupmode="layer"
     id="layer2"
     inkscape:label="BG" />
  <g
     inkscape:label="Logo"
     inkscape:groupmode="layer"
     id="layer1"
     transform="translate(0,-191.16665)"
     style="display:inline">
    <g
       transform="matrix(0.35277777,0,0,-0.35277777,-121.45626,596.86109)"
       inkscape:label="BB full logo"
       id="g823">
      <path
         inkscape:connector-curvature="0"
         id="path825"
         style="fill:#e0aa22;fill-opacity:1;fill-rule:nonzero;stroke:none"
         d="M 556.969,876.833 H 448.044 v 94.279 h 108.925 z" />
      <g
         id="g827">
        <g
           clip-path="url(#clipPath833)"
           id="g829">
          <g
             transform="translate(471.3193,1080.8599)"
             id="g835">
            <path
               inkscape:connector-curvature="0"
               id="path837"
               style="fill:#141414;fill-opacity:1;fill-rule:nonzero;stroke:none"
               d="m 0,0 c 6.512,0 11.809,-5.297 11.809,-11.809 0,-6.511 -5.297,-11.81 -11.809,-11.81 -6.512,0 -11.809,5.299 -11.809,11.81 C -11.809,-5.297 -6.512,0 0,0 m 0,-41.233 c 16.225,0 29.423,13.2 29.423,29.424 0,16.225 -13.198,29.424 -29.423,29.424 -16.224,0 -29.423,-13.199 -29.423,-29.424 0,-16.224 13.199,-29.424 29.423,-29.424" />
          </g>
          <g
             transform="translate(400.1475,1081.0767)"
             id="g839">
            <path
               inkscape:connector-curvature="0"
               id="path841"
               style="fill:#141414;fill-opacity:1;fill-rule:nonzero;stroke:none"
               d="m 0,0 c -10.714,0 -19.431,8.716 -19.431,19.431 0,10.713 8.717,19.43 19.431,19.43 10.714,0 19.431,-8.717 19.431,-19.43 C 19.431,8.716 10.714,0 0,0 m 0,56.475 c -20.427,0 -37.045,-16.618 -37.045,-37.044 0,-20.427 16.618,-37.046 37.045,-37.046 20.427,0 37.045,16.619 37.045,37.046 0,20.426 -16.618,37.044 -37.045,37.044" />
          </g>
          <g
             transform="translate(619.9312,894.416)"
             id="g843">
            <path
               inkscape:connector-curvature="0"
               id="path845"
               style="fill:#141414;fill-opacity:1;fill-rule:nonzero;stroke:none"
               d="m 0,0 c -0.642,-1.788 -1.537,-3.402 -2.686,-4.844 -1.15,-1.441 -2.5,-2.642 -4.051,-3.602 -1.551,-0.961 -3.235,-1.575 -5.052,-1.842 -1.07,-0.214 -2.14,-0.36 -3.209,-0.441 -1.069,-0.08 -2.165,-0.12 -3.288,-0.12 h -26.788 v 32.507 h 26.788 c 1.123,0 2.233,-0.067 3.328,-0.2 1.097,-0.134 2.179,-0.28 3.249,-0.44 1.817,-0.321 3.501,-0.949 5.052,-1.882 1.552,-0.935 2.887,-2.096 4.011,-3.483 C -1.524,14.265 -0.642,12.703 0,10.97 0.642,9.233 0.963,7.459 0.963,5.645 0.963,3.67 0.642,1.788 0,0 m -68.296,88.513 h -96.934 v 25.239 h 96.934 z m 0,-87.532 c 0,-6.533 -5.296,-11.83 -11.829,-11.83 h -14.4 c -6.534,0 -11.83,5.297 -11.83,11.83 v 56.247 c 0,6.533 5.296,11.83 11.83,11.83 h 14.4 c 6.533,0 11.829,-5.297 11.829,-11.83 z m -58.876,0 c 0,-6.533 -5.296,-11.83 -11.829,-11.83 H -153.4 c -6.534,0 -11.83,5.297 -11.83,11.83 v 56.247 c 0,6.533 5.296,11.83 11.83,11.83 h 14.399 c 6.533,0 11.829,-5.297 11.829,-11.83 z m 82.098,68.077 h 26.232 c 2.139,0 4.105,-0.362 5.896,-1.082 1.792,-0.72 3.33,-1.721 4.614,-3.002 1.284,-1.282 2.286,-2.803 3.007,-4.564 0.723,-1.762 1.084,-3.657 1.084,-5.684 0,-2.082 -0.375,-4.017 -1.123,-5.806 -0.749,-1.788 -1.779,-3.336 -3.089,-4.644 -1.311,-1.308 -2.875,-2.335 -4.693,-3.082 -1.818,-0.748 -3.797,-1.121 -5.936,-1.121 H -45.074 Z M 23.607,13.291 c -0.703,2.695 -1.691,5.244 -2.962,7.646 -1.271,2.402 -2.788,4.645 -4.549,6.726 -1.762,2.081 -3.737,3.924 -5.925,5.525 2.723,2.828 4.856,6.111 6.405,9.848 1.548,3.735 2.322,7.767 2.322,12.089 0,4.697 -0.867,9.074 -2.599,13.132 -1.735,4.056 -4.108,7.579 -7.12,10.568 -3.013,2.988 -6.56,5.351 -10.64,7.086 -4.08,1.735 -8.438,2.602 -13.078,2.602 h -32.94 v 46.056 H -186.047 V -19.669 c 0,-5.908 4.79,-10.698 10.698,-10.698 h 110.482 c 0.087,-0.004 0.167,-0.018 0.256,-0.018 h 55.086 c 4.75,0 9.208,0.948 13.371,2.842 4.163,1.895 7.779,4.471 10.849,7.728 3.068,3.254 5.497,7.017 7.286,11.288 1.787,4.27 2.682,8.78 2.682,13.532 0,2.828 -0.353,5.59 -1.056,8.286" />
          </g>
          <g
             transform="translate(659.0605,947.417)"
             id="g847">
            <path
               inkscape:connector-curvature="0"
               id="path849"
               style="fill:#141414;fill-opacity:1;fill-rule:nonzero;stroke:none"
               d="m 0,0 c 0,1.331 0.449,2.341 1.347,3.029 0.899,0.689 1.877,1.033 2.937,1.033 h 8.775 c 1.151,0 2.026,-0.344 2.627,-1.033 0.598,-0.688 1.058,-1.538 1.38,-2.548 0.323,-1.009 0.554,-2.099 0.691,-3.27 0.138,-1.17 0.299,-2.237 0.484,-3.202 1.014,1.423 2.152,2.811 3.414,4.166 1.262,1.353 2.696,2.558 4.303,3.615 1.606,1.056 3.42,1.904 5.44,2.548 2.02,0.642 4.315,0.964 6.886,0.964 2.295,0 4.36,-0.15 6.197,-0.448 1.836,-0.299 3.591,-0.757 5.268,-1.376 1.675,-0.621 3.315,-1.424 4.923,-2.412 1.606,-0.987 3.328,-2.146 5.164,-3.476 0.78,-0.506 1.457,-1.079 2.031,-1.722 0.574,-0.642 0.861,-1.4 0.861,-2.271 C 62.682,-6.771 62.613,-7.161 62.521,-7.575 62.429,-7.987 62.246,-8.4 61.97,-8.814 l -5.646,-8.952 c -0.367,-0.459 -0.792,-0.792 -1.273,-0.998 -0.482,-0.206 -0.907,-0.309 -1.274,-0.309 -0.735,0 -1.446,0.182 -2.135,0.551 -1.515,0.826 -2.892,1.606 -4.131,2.34 -1.24,0.735 -2.456,1.366 -3.649,1.894 -1.195,0.527 -2.423,0.94 -3.685,1.239 -1.262,0.299 -2.675,0.448 -4.234,0.448 -4.087,0 -7.54,-1.308 -10.363,-3.925 -2.823,-2.617 -4.717,-6.221 -5.681,-10.81 v -51.918 c 0,-2.755 -1.428,-4.132 -4.284,-4.132 H 4.284 C 1.428,-83.386 0,-82.009 0,-79.254 Z" />
          </g>
          <g
             transform="translate(775.2886,935.7803)"
             id="g851">
            <path
               inkscape:connector-curvature="0"
               id="path853"
               style="fill:#141414;fill-opacity:1;fill-rule:nonzero;stroke:none"
               d="m 0,0 c -2.709,0 -5.348,-0.494 -7.918,-1.481 -2.572,-0.988 -4.924,-2.33 -7.058,-4.028 -2.135,-1.699 -3.994,-3.695 -5.577,-5.99 -1.585,-2.296 -2.744,-4.775 -3.477,-7.437 h 48.75 c -0.735,2.799 -1.848,5.359 -3.34,7.677 -1.492,2.318 -3.294,4.315 -5.405,5.991 -2.112,1.675 -4.522,2.971 -7.23,3.89 C 6.036,-0.46 3.122,0 0,0 m 30.572,-62.109 c -4.039,-3.443 -8.458,-6.152 -13.255,-8.125 -4.797,-1.973 -10.064,-2.96 -15.802,-2.96 -6.197,0 -12.074,1.17 -17.627,3.51 -5.555,2.342 -10.421,5.555 -14.598,9.641 -4.178,4.085 -7.495,8.87 -9.95,14.356 -2.456,5.485 -3.683,11.396 -3.683,17.731 0,4.085 0.504,8.032 1.514,11.844 1.01,3.809 2.444,7.378 4.304,10.707 1.859,3.328 4.12,6.38 6.782,9.157 2.662,2.777 5.635,5.153 8.917,7.127 3.282,1.973 6.84,3.5 10.673,4.579 3.832,1.078 7.884,1.618 12.153,1.618 3.488,0 6.931,-0.425 10.329,-1.274 3.397,-0.85 6.62,-2.055 9.674,-3.614 3.052,-1.562 5.91,-3.456 8.573,-5.681 2.662,-2.228 5.003,-4.74 7.023,-7.54 2.755,-3.857 4.774,-8.011 6.06,-12.463 1.284,-4.453 1.927,-9.389 1.927,-14.805 0,-1.331 -0.058,-2.444 -0.172,-3.34 -0.115,-0.894 -0.402,-1.617 -0.86,-2.169 -0.46,-0.549 -1.149,-0.953 -2.066,-1.204 -0.919,-0.253 -2.203,-0.379 -3.856,-0.379 h -61.076 c 0.596,-3.304 1.733,-6.231 3.408,-8.779 1.676,-2.548 3.661,-4.706 5.956,-6.473 2.295,-1.767 4.797,-3.098 7.506,-3.993 2.708,-0.895 5.416,-1.342 8.125,-1.342 2.065,0 4.051,0.206 5.956,0.619 1.905,0.414 3.683,0.964 5.337,1.653 1.653,0.687 3.178,1.479 4.578,2.375 1.4,0.895 2.627,1.825 3.684,2.789 0,0.045 0.023,0.068 0.069,0.068 0.551,0.505 1.078,0.907 1.584,1.205 0.505,0.298 1.033,0.448 1.584,0.448 0.413,0 0.883,-0.138 1.411,-0.412 0.527,-0.276 1.044,-0.736 1.549,-1.377 1.24,-1.516 2.295,-2.779 3.168,-3.788 0.871,-1.01 1.584,-1.86 2.134,-2.547 0.551,-0.69 0.953,-1.286 1.205,-1.791 0.252,-0.506 0.379,-1.01 0.379,-1.515 0,-1.286 -0.872,-2.571 -2.617,-3.856" />
          </g>
          <g
             transform="translate(828.3076,945.9014)"
             id="g855">
            <path
               inkscape:connector-curvature="0"
               id="path857"
               style="fill:#141414;fill-opacity:1;fill-rule:nonzero;stroke:none"
               d="m 0,0 c -0.092,0.367 -0.172,0.689 -0.241,0.965 -0.069,0.275 -0.127,0.573 -0.172,0.894 -0.046,0.322 -0.069,0.597 -0.069,0.828 0,0.871 0.31,1.571 0.93,2.099 0.619,0.527 1.549,0.792 2.789,0.792 h 12.394 c 2.157,0 3.602,-1.057 4.338,-3.168 0.826,-2.387 1.824,-5.21 2.995,-8.47 1.17,-3.259 2.41,-6.702 3.718,-10.328 1.309,-3.627 2.651,-7.287 4.028,-10.982 1.377,-3.695 2.673,-7.185 3.891,-10.466 1.216,-3.282 2.317,-6.221 3.305,-8.813 0.987,-2.595 1.755,-4.557 2.306,-5.888 2.066,5.829 4.705,13.29 7.919,22.378 3.213,9.09 7.138,19.969 11.774,32.638 0.414,1.102 0.975,1.894 1.688,2.376 0.71,0.482 1.617,0.723 2.719,0.723 h 11.981 c 1.422,0 2.399,-0.23 2.927,-0.688 C 79.747,4.43 80.012,3.832 80.012,3.099 80.012,2.73 79.954,2.272 79.84,1.723 79.724,1.171 79.621,0.758 79.529,0.482 l -7.16,-17.42 c 0.917,-2.296 1.984,-4.854 3.202,-7.678 1.216,-2.822 2.501,-5.783 3.855,-8.882 1.354,-3.099 2.709,-6.255 4.063,-9.468 1.353,-3.214 2.627,-6.335 3.822,-9.365 0.825,2.204 1.8,4.752 2.925,7.643 1.125,2.892 2.295,5.967 3.513,9.227 1.216,3.259 2.479,6.61 3.787,10.053 1.308,3.443 2.592,6.828 3.856,10.157 1.262,3.327 2.467,6.507 3.614,9.536 1.147,3.03 2.181,5.761 3.099,8.194 0.413,1.102 0.941,1.894 1.583,2.376 0.643,0.482 1.492,0.723 2.549,0.723 h 11.43 c 1.331,0 2.341,-0.196 3.029,-0.585 0.689,-0.391 1.033,-1.067 1.033,-2.031 0,-0.322 -0.046,-0.758 -0.138,-1.309 -0.092,-0.55 -0.183,-0.941 -0.275,-1.171 l -32.5,-79.597 c -0.185,-0.323 -0.379,-0.644 -0.586,-0.964 -0.206,-0.322 -0.481,-0.62 -0.826,-0.896 -0.344,-0.275 -0.781,-0.494 -1.308,-0.654 -0.529,-0.161 -1.159,-0.241 -1.894,-0.241 h -5.921 c -1.608,0 -2.709,0.298 -3.305,0.895 -0.598,0.596 -1.079,1.24 -1.447,1.928 -2.708,6.565 -5.394,13.071 -8.055,19.522 -2.663,6.448 -5.326,12.955 -7.988,19.52 l -15.837,-39.11 c -0.368,-0.644 -0.816,-1.264 -1.342,-1.86 -0.529,-0.597 -1.505,-0.895 -2.927,-0.895 h -6.335 c -1.653,0 -2.766,0.286 -3.339,0.861 -0.575,0.572 -0.999,1.204 -1.274,1.894 z" />
          </g>
          <g
             transform="translate(1090.6436,900.0605)"
             id="g859">
            <path
               inkscape:connector-curvature="0"
               id="path861"
               style="fill:#141414;fill-opacity:1;fill-rule:nonzero;stroke:none"
               d="m 0,0 c 0,1.814 -0.322,3.589 -0.963,5.325 -0.641,1.734 -1.523,3.295 -2.645,4.684 -1.124,1.387 -2.46,2.548 -4.011,3.482 -1.552,0.934 -3.235,1.562 -5.053,1.882 -1.07,0.16 -2.152,0.307 -3.248,0.44 -1.096,0.133 -2.205,0.201 -3.329,0.201 h -26.788 v -32.507 h 26.788 c 1.124,0 2.22,0.04 3.289,0.12 1.068,0.08 2.139,0.227 3.208,0.44 1.817,0.267 3.501,0.881 5.053,1.842 1.551,0.96 2.9,2.161 4.051,3.603 1.148,1.441 2.044,3.055 2.685,4.843 C -0.322,-3.856 0,-1.975 0,0 m -5.203,49.081 c 0,2.028 -0.361,3.923 -1.084,5.685 -0.722,1.76 -1.724,3.282 -3.007,4.563 -1.284,1.281 -2.823,2.282 -4.614,3.002 -1.791,0.722 -3.757,1.082 -5.897,1.082 H -46.037 V 34.429 h 25.992 c 2.14,0 4.118,0.373 5.937,1.121 1.817,0.747 3.381,1.773 4.693,3.082 1.31,1.307 2.339,2.855 3.088,4.644 0.748,1.788 1.124,3.723 1.124,5.805 m -63.974,30.024 c 0,2.508 1.2,3.763 3.601,3.763 h 50.075 c 4.639,0 8.998,-0.867 13.077,-2.601 4.078,-1.736 7.625,-4.098 10.64,-7.086 3.012,-2.99 5.386,-6.513 7.119,-10.569 1.732,-4.057 2.602,-8.434 2.602,-13.131 0,-4.323 -0.776,-8.355 -2.324,-12.089 -1.549,-3.738 -3.681,-7.021 -6.405,-9.849 2.188,-1.601 4.162,-3.443 5.927,-5.524 1.761,-2.082 3.277,-4.325 4.547,-6.726 1.269,-2.402 2.258,-4.951 2.962,-7.647 0.704,-2.696 1.057,-5.458 1.057,-8.286 0,-4.752 -0.894,-9.261 -2.683,-13.531 -1.789,-4.271 -4.216,-8.034 -7.285,-11.289 -3.071,-3.257 -6.686,-5.833 -10.849,-7.728 -4.163,-1.894 -8.621,-2.841 -13.371,-2.841 h -55.086 c -1.069,0 -1.936,0.28 -2.603,0.841 -0.668,0.56 -1.001,1.427 -1.001,2.601 z" />
          </g>
          <g
             transform="translate(1204.9658,866.7168)"
             id="g863">
            <path
               inkscape:connector-curvature="0"
               id="path865"
               style="fill:#141414;fill-opacity:1;fill-rule:nonzero;stroke:none"
               d="m 0,0 c 0,-0.506 -0.172,-0.895 -0.516,-1.171 -0.345,-0.275 -0.769,-0.471 -1.275,-0.585 -0.505,-0.115 -1.057,-0.183 -1.652,-0.206 -0.598,-0.024 -1.124,-0.035 -1.584,-0.035 h -6.954 c -1.333,0 -2.318,0.424 -2.961,1.274 -0.644,0.848 -1.079,1.825 -1.309,2.927 l -0.757,6.265 c -1.01,-1.515 -2.272,-2.973 -3.787,-4.372 -1.516,-1.401 -3.305,-2.64 -5.37,-3.718 -2.066,-1.079 -4.441,-1.941 -7.128,-2.583 -2.686,-0.642 -5.727,-0.963 -9.123,-0.963 -5.464,0 -10.283,0.975 -14.461,2.926 -4.177,1.951 -7.676,4.614 -10.5,7.987 -2.823,3.374 -4.969,7.356 -6.436,11.947 -1.471,4.59 -2.206,9.525 -2.206,14.804 v 45.928 c 0,1.652 0.391,2.902 1.171,3.753 0.781,0.847 1.906,1.273 3.375,1.273 h 10.465 c 1.836,0 3.065,-0.344 3.684,-1.033 0.62,-0.689 0.93,-1.905 0.93,-3.648 V 34.842 c 0,-2.435 0.379,-4.81 1.136,-7.127 0.757,-2.319 1.894,-4.397 3.409,-6.233 1.514,-1.835 3.408,-3.304 5.68,-4.406 2.272,-1.101 4.924,-1.652 7.953,-1.652 2.112,0 4.315,0.367 6.611,1.101 2.294,0.734 4.382,1.86 6.265,3.374 1.882,1.515 3.444,3.409 4.683,5.681 1.239,2.273 1.859,4.924 1.859,7.953 v 44.688 c 0,0.827 0.045,1.663 0.137,2.513 0.093,0.849 0.286,1.629 0.585,2.342 0.299,0.71 0.712,1.284 1.24,1.721 0.527,0.436 1.25,0.654 2.169,0.654 h 11.361 c 1.515,0 2.627,-0.368 3.34,-1.101 0.712,-0.736 1.067,-1.768 1.067,-3.099 V 2.065 C 1.101,1.146 0.733,0.459 0,0" />
          </g>
          <g
             transform="translate(1296.0615,907.6182)"
             id="g867">
            <path
               inkscape:connector-curvature="0"
               id="path869"
               style="fill:#141414;fill-opacity:1;fill-rule:nonzero;stroke:none"
               d="m 0,0 c 0,3.625 -0.644,7.092 -1.929,10.396 -1.285,3.306 -3.076,6.208 -5.37,8.711 -2.296,2.501 -5.004,4.498 -8.125,5.991 -3.122,1.491 -6.496,2.238 -10.123,2.238 -3.671,0 -7.126,-0.747 -10.361,-2.238 -3.238,-1.493 -6.06,-3.49 -8.47,-5.991 -2.409,-2.503 -4.303,-5.405 -5.681,-8.711 C -51.437,7.092 -52.125,3.625 -52.125,0 v -0.482 c 0.046,-3.627 0.78,-7.037 2.204,-10.225 1.423,-3.192 3.327,-5.991 5.715,-8.401 2.387,-2.41 5.175,-4.316 8.367,-5.716 3.19,-1.4 6.621,-2.1 10.292,-2.1 3.627,0 7.001,0.712 10.123,2.135 3.121,1.423 5.829,3.351 8.125,5.784 2.294,2.433 4.085,5.29 5.37,8.572 C -0.644,-7.15 0,-3.674 0,0 m -51.78,-39.455 c -0.413,-1.377 -0.861,-2.41 -1.342,-3.099 -0.483,-0.689 -1.412,-1.033 -2.79,-1.033 H -66.31 c -2.891,0 -4.337,1.377 -4.337,4.132 V 65.689 c 0,1.193 0.414,2.179 1.24,2.96 0.825,0.781 1.766,1.17 2.822,1.17 h 11.362 c 1.376,0 2.455,-0.401 3.236,-1.204 0.78,-0.803 1.172,-1.78 1.172,-2.926 V 34.083 c 3.303,3.396 7.102,6.105 11.395,8.126 4.291,2.019 9.215,3.029 14.77,3.029 6.197,0 11.968,-1.182 17.317,-3.546 5.347,-2.365 10.007,-5.589 13.978,-9.674 3.969,-4.086 7.08,-8.872 9.331,-14.357 C 18.224,12.176 19.349,6.288 19.349,0 c 0,-6.243 -1.125,-12.108 -3.373,-17.594 -2.251,-5.485 -5.362,-10.271 -9.331,-14.356 -3.971,-4.086 -8.631,-7.311 -13.978,-9.674 -5.349,-2.364 -11.12,-3.546 -17.317,-3.546 -2.71,0 -5.303,0.299 -7.782,0.895 -2.478,0.596 -4.842,1.412 -7.091,2.444 -2.25,1.033 -4.351,2.261 -6.301,3.684 -1.951,1.422 -3.73,2.937 -5.336,4.544 z" />
          </g>
          <g
             transform="translate(1401.7539,907.6182)"
             id="g871">
            <path
               inkscape:connector-curvature="0"
               id="path873"
               style="fill:#141414;fill-opacity:1;fill-rule:nonzero;stroke:none"
               d="m 0,0 c 0,3.625 -0.643,7.092 -1.928,10.396 -1.285,3.306 -3.076,6.208 -5.37,8.711 -2.296,2.501 -5.004,4.498 -8.125,5.991 -3.122,1.491 -6.496,2.238 -10.123,2.238 -3.672,0 -7.126,-0.747 -10.361,-2.238 -3.238,-1.493 -6.06,-3.49 -8.47,-5.991 -2.409,-2.503 -4.304,-5.405 -5.681,-8.711 C -51.436,7.092 -52.124,3.625 -52.124,0 v -0.482 c 0.046,-3.627 0.78,-7.037 2.204,-10.225 1.423,-3.192 3.327,-5.991 5.715,-8.401 2.387,-2.41 5.175,-4.316 8.366,-5.716 3.191,-1.4 6.621,-2.1 10.293,-2.1 3.627,0 7.001,0.712 10.123,2.135 3.121,1.423 5.829,3.351 8.125,5.784 2.294,2.433 4.085,5.29 5.37,8.572 C -0.643,-7.15 0,-3.674 0,0 m -51.779,-39.455 c -0.413,-1.377 -0.861,-2.41 -1.342,-3.099 -0.483,-0.689 -1.412,-1.033 -2.79,-1.033 h -10.398 c -2.891,0 -4.337,1.377 -4.337,4.132 V 65.689 c 0,1.193 0.414,2.179 1.239,2.96 0.826,0.781 1.767,1.17 2.823,1.17 h 11.362 c 1.376,0 2.455,-0.401 3.236,-1.204 0.78,-0.803 1.172,-1.78 1.172,-2.926 V 34.083 c 3.303,3.396 7.102,6.105 11.394,8.126 4.291,2.019 9.216,3.029 14.771,3.029 6.197,0 11.968,-1.182 17.317,-3.546 5.347,-2.365 10.007,-5.589 13.977,-9.674 3.97,-4.086 7.081,-8.872 9.331,-14.357 C 18.225,12.176 19.349,6.288 19.349,0 c 0,-6.243 -1.124,-12.108 -3.373,-17.594 -2.25,-5.485 -5.361,-10.271 -9.331,-14.356 -3.97,-4.086 -8.63,-7.311 -13.977,-9.674 -5.349,-2.364 -11.12,-3.546 -17.317,-3.546 -2.71,0 -5.303,0.299 -7.782,0.895 -2.478,0.596 -4.843,1.412 -7.091,2.444 -2.251,1.033 -4.351,2.261 -6.301,3.684 -1.951,1.422 -3.73,2.937 -5.336,4.544 z" />
          </g>
          <g
             transform="translate(1436.8008,973.3076)"
             id="g875">
            <path
               inkscape:connector-curvature="0"
               id="path877"
               style="fill:#141414;fill-opacity:1;fill-rule:nonzero;stroke:none"
               d="m 0,0 c 0,1.192 0.321,2.179 0.965,2.96 0.642,0.78 1.629,1.17 2.96,1.17 h 12.051 c 0.918,0 1.777,-0.39 2.581,-1.17 C 19.359,2.179 19.763,1.192 19.763,0 v -105.145 c 0,-1.376 -0.38,-2.41 -1.137,-3.098 -0.757,-0.69 -1.779,-1.033 -3.063,-1.033 H 4.062 c -1.468,0 -2.513,0.343 -3.132,1.033 -0.619,0.688 -0.93,1.722 -0.93,3.098 z" />
          </g>
          <g
             transform="translate(1516.8115,935.7803)"
             id="g879">
            <path
               inkscape:connector-curvature="0"
               id="path881"
               style="fill:#141414;fill-opacity:1;fill-rule:nonzero;stroke:none"
               d="m 0,0 c -2.709,0 -5.349,-0.494 -7.918,-1.481 -2.572,-0.988 -4.922,-2.33 -7.057,-4.028 -2.134,-1.699 -3.994,-3.695 -5.578,-5.99 -1.584,-2.296 -2.743,-4.775 -3.478,-7.437 h 48.752 c -0.736,2.799 -1.849,5.359 -3.341,7.677 -1.492,2.318 -3.293,4.315 -5.404,5.991 -2.113,1.675 -4.523,2.971 -7.23,3.89 C 6.036,-0.46 3.121,0 0,0 m 30.573,-62.109 c -4.041,-3.443 -8.458,-6.152 -13.254,-8.125 -4.798,-1.973 -10.066,-2.96 -15.803,-2.96 -6.198,0 -12.075,1.17 -17.627,3.51 -5.555,2.342 -10.422,5.555 -14.599,9.641 -4.177,4.085 -7.493,8.87 -9.948,14.356 -2.457,5.485 -3.685,11.396 -3.685,17.731 0,4.085 0.505,8.032 1.516,11.844 1.008,3.809 2.443,7.378 4.303,10.707 1.858,3.328 4.119,6.38 6.782,9.157 2.662,2.777 5.635,5.153 8.917,7.127 3.281,1.973 6.839,3.5 10.673,4.579 3.831,1.078 7.884,1.618 12.152,1.618 3.488,0 6.933,-0.425 10.329,-1.274 3.397,-0.85 6.621,-2.055 9.675,-3.614 3.053,-1.562 5.909,-3.456 8.572,-5.681 2.662,-2.228 5.003,-4.74 7.024,-7.54 2.754,-3.857 4.774,-8.011 6.059,-12.463 1.284,-4.453 1.928,-9.389 1.928,-14.805 0,-1.331 -0.058,-2.444 -0.172,-3.34 -0.115,-0.894 -0.403,-1.617 -0.861,-2.169 -0.46,-0.549 -1.148,-0.953 -2.066,-1.204 -0.918,-0.253 -2.204,-0.379 -3.855,-0.379 h -61.076 c 0.595,-3.304 1.732,-6.231 3.409,-8.779 1.675,-2.548 3.659,-4.706 5.954,-6.473 2.296,-1.767 4.798,-3.098 7.507,-3.993 2.708,-0.895 5.415,-1.342 8.125,-1.342 2.066,0 4.051,0.206 5.957,0.619 1.902,0.414 3.682,0.964 5.335,1.653 1.653,0.687 3.177,1.479 4.579,2.375 1.399,0.895 2.627,1.825 3.684,2.789 0,0.045 0.022,0.068 0.069,0.068 0.551,0.505 1.077,0.907 1.584,1.205 0.504,0.298 1.032,0.448 1.583,0.448 0.414,0 0.884,-0.138 1.412,-0.412 0.526,-0.276 1.043,-0.736 1.55,-1.377 1.238,-1.516 2.294,-2.779 3.166,-3.788 0.871,-1.01 1.584,-1.86 2.134,-2.547 0.551,-0.69 0.953,-1.286 1.207,-1.791 0.251,-0.506 0.377,-1.01 0.377,-1.515 0,-1.286 -0.872,-2.571 -2.616,-3.856" />
          </g>
          <g
             transform="translate(1586.082,888.6816)"
             id="g883">
            <path
               inkscape:connector-curvature="0"
               id="path885"
               style="fill:#141414;fill-opacity:1;fill-rule:nonzero;stroke:none"
               d="m 0,0 c 0.964,-1.514 2.181,-2.823 3.648,-3.925 1.471,-1.101 2.973,-2.009 4.512,-2.72 1.537,-0.711 3.006,-1.228 4.407,-1.548 1.4,-0.323 2.513,-0.483 3.338,-0.483 1.286,0 2.8,0.138 4.545,0.413 1.745,0.276 3.386,0.769 4.924,1.482 1.538,0.71 2.845,1.675 3.924,2.89 1.079,1.216 1.619,2.766 1.619,4.649 0,1.835 -0.426,3.328 -1.273,4.475 -0.851,1.148 -1.998,2.101 -3.444,2.858 -1.446,0.758 -3.097,1.388 -4.957,1.893 -1.859,0.505 -3.822,1.056 -5.888,1.654 -4.819,1.284 -8.929,2.833 -12.326,4.647 -3.396,1.814 -6.186,3.891 -8.366,6.232 -2.18,2.34 -3.776,4.911 -4.785,7.712 -1.01,2.798 -1.516,5.852 -1.516,9.158 0,3.717 0.736,7.114 2.204,10.19 1.47,3.075 3.535,5.715 6.198,7.918 2.661,2.204 5.864,3.914 9.606,5.13 3.74,1.216 7.883,1.825 12.429,1.825 3.212,0 6.081,-0.287 8.607,-0.86 2.524,-0.575 4.865,-1.436 7.023,-2.582 2.156,-1.149 4.187,-2.595 6.093,-4.338 1.904,-1.745 3.844,-3.788 5.818,-6.129 0.69,-0.826 1.034,-1.63 1.034,-2.409 0,-0.827 -0.46,-1.609 -1.378,-2.342 -0.688,-0.551 -1.504,-1.239 -2.444,-2.065 -0.942,-0.827 -1.87,-1.63 -2.788,-2.411 -0.92,-0.781 -1.79,-1.446 -2.617,-1.997 -0.827,-0.55 -1.515,-0.826 -2.065,-0.826 -1.011,0 -1.997,0.596 -2.962,1.79 -1.011,1.194 -2.02,2.238 -3.029,3.133 -1.01,0.896 -2.066,1.63 -3.168,2.203 -1.102,0.574 -2.296,1.01 -3.58,1.31 -1.287,0.298 -2.687,0.447 -4.2,0.447 -1.241,0 -2.539,-0.184 -3.891,-0.552 C 13.897,46.455 12.658,45.904 11.533,45.171 10.409,44.436 9.468,43.552 8.711,42.519 7.952,41.486 7.574,40.326 7.574,39.042 c 0,-1.469 0.469,-2.72 1.41,-3.752 0.939,-1.033 2.13,-1.929 3.574,-2.686 1.443,-0.757 3.013,-1.389 4.71,-1.894 1.695,-0.505 3.276,-0.963 4.745,-1.377 4.214,-1.193 8.088,-2.57 11.617,-4.132 3.527,-1.56 6.564,-3.454 9.109,-5.68 2.542,-2.227 4.526,-4.843 5.946,-7.849 1.42,-3.007 2.13,-6.531 2.13,-10.569 0,-4.27 -0.845,-8.092 -2.538,-11.465 -1.693,-3.374 -4.037,-6.233 -7.033,-8.574 -2.996,-2.34 -6.546,-4.131 -10.648,-5.371 -4.102,-1.239 -8.562,-1.858 -13.381,-1.858 -2.894,0 -5.83,0.31 -8.814,0.929 -2.985,0.62 -5.842,1.585 -8.573,2.892 -2.731,1.309 -5.257,2.984 -7.574,5.027 -2.318,2.042 -4.259,4.463 -5.819,7.264 -0.689,1.147 -1.033,2.18 -1.033,3.099 0,0.596 0.149,1.112 0.448,1.55 0.298,0.434 0.699,0.86 1.206,1.273 l 7.711,5.922 c 0.689,0.413 1.308,0.619 1.859,0.619 0.643,0 1.217,-0.218 1.722,-0.653 C -1.147,1.319 -0.597,0.733 0,0" />
          </g>
        </g>
      </g>
    </g>
  </g>
</svg>
