<svg version="1" xmlns="http://www.w3.org/2000/svg" width="2560" height="2560" viewBox="0 0 1920.000000 1920.000000"><path d="M638.4 372.2c-2.1.3-5.5.9-7.4 1.3-1.9.4-7.8.8-13 1-9.8.4-17.2 1.2-20.2 2.1-.9.3-2.7.7-4 .9-5.7 1.1-8.4 1.8-9.3 2.4-.5.3-1.2.6-1.5.7-.3 0-1.8.6-3.4 1.2-2.5 1.1-6 1.1-21.9.3-1-.1-1.6-.5-1.3-1 .3-.5-.2-1.2-1.1-1.5-.9-.4-1.9-.2-2.3.4-.5.8-2 .9-4.6.4-2.1-.5-4.2-.7-4.6-.6-.5.1-.8-.2-.8-.7 0-.5-3.3-.8-7.2-.8-4 .1-8.6-.2-10.3-.5-1.6-.4-2.4-.5-1.7-.2 1 .5.9.9-.5 1.9-1.2.9-2.2 1-3 .4-.7-.7-1.3-.6-1.7 0-.4.6-1.5.7-3 .1-3-1.1-11.6-.6-14.4.9-1.2.6-2.5 1.1-2.9 1-.4-.1-1.2 0-1.8.1-2.5.6-4.1.4-4.7-.5-.5-.6-1.1-.5-1.7.4-.5.7-1.7 1.1-2.7.7-1.1-.3-3.7-.1-5.9.5s-5.5 1.2-7.3 1.4c-1.9.1-3.9.8-4.4 1.3-.6.6-1.7.8-2.6.4-1.1-.4-1.4-.1-1 1 .4.9.1 2.1-.5 2.7-1.3 1.3-4.1 1.5-3.2.2.3-.5.1-1.2-.4-1.5-.5-.3-1.2.5-1.5 1.9-.4 1.4-1.3 2.5-2.2 2.5-.8 0-2.8 1.4-4.5 3.1-1.8 1.9-3.6 2.8-4.5 2.5-1.1-.4-1.8.1-2.1 1.4-.6 2.2-7.6 6.4-8.7 5.3-.4-.4-1.8.5-3.1 1.9-1.7 1.9-3.9 2.9-7.2 3.3-5.9.9-12.2 3.6-14.6 6.2-1.6 1.8-5.1 10.1-6.2 14.3-.2.8-1 3.4-1.9 5.7-.8 2.4-1.3 4.3-1.1 4.3.2 0-.4 1.9-1.4 4.2-1 2.4-1.6 4.9-1.4 5.5.3.7.1 1.3-.4 1.3-.6 0-1 .6-1 1.3 0 .7-.7 3.7-1.7 6.7-.9 3-1.8 6.2-1.9 7-.2.8-.5 1.9-.9 2.5-.3.5-1.4 3.7-2.4 7-2.1 7-1.7 5.9-3.3 11.5-.6 2.5-1.6 5.4-2.1 6.5-.5 1.1-1.4 3.8-2 6-.6 2.2-1.4 4.7-1.7 5.5-.3.8-.7 1.9-.8 2.5 0 .5-.5 1.9-.9 3-11.8 31-11.7 30.8-19.7 36.2-3.3 2.3-5.8 3.2-9.5 3.3-8.5.4-12.2 0-13.6-1.3-.7-.8-2.3-1.9-3.5-2.6-1.2-.6-6.8-4.6-12.5-8.9-11-8.2-22.8-16.5-28.1-19.6-5.5-3.2-12.4-6.6-13.6-6.6-.6 0-1.1-.4-1.1-1 0-.5-.3-.9-.7-.8-.5.1-2.4-.5-4.3-1.4-7.3-3.1-21.2-7.4-27.5-8.3-.5-.1-1.2-.3-1.5-.4-1-.4-14.6-1.3-20-1.3-4.9 0-16.5.8-16.5 1.2 0 .1-2 .3-4.5.5-2.5.1-6.5.8-9 1.5s-5.8 1.4-7.4 1.6c-1.6.2-4.3 1.3-6.1 2.4-1.8 1.1-3.9 2-4.7 2-.8 0-1.9.5-2.6 1.2-.6.6-2 1.3-3 1.5-1.1.1-4.1 1.2-6.8 2.4s-5.2 2.2-5.6 2.1c-.5-.1-.8.3-.8.9 0 .5-.5.7-1 .4-.5-.3-1-.3-1 .2 0 .4-1.9 1.6-4.3 2.5-2.3 1-5.5 3-7.2 4.4-1.6 1.4-4.3 3.5-5.9 4.7-1.5 1.2-3.6 3-4.4 3.9-.9 1-1.9 1.8-2.3 1.8-1 0-15.6 14.6-21.9 21.9-8 9.3-17.7 23.3-23.3 33.6-4.8 8.9-10.1 21.5-9 21.5.3 0 0 .6-.6 1.3-.6.8-1.2 2.2-1.4 3.3-.2 1-1 3.2-1.6 4.9-2 4.6-5.7 17.6-6.2 21.2-.1.5-.5 1.8-1 3-.5 1.3-1.1 4.4-1.5 7-.3 2.7-.8 5.1-1.1 5.5-.7 1.2-1.5 5-1.8 8.8-.2 1.9-.6 4.2-.9 5-.3.8-.8 2.6-1 4-.3 1.4-.5 2.5-.6 2.5-.1 0-.3 1.1-.5 2.5-.4 3.8-1.6 11.3-2 13-.2.8-.7 3.7-1 6.5-.8 6-1.5 11.1-2.1 14.5-.2 1.4-.6 4.5-.9 7-.3 2.5-.8 5.6-1 7-.2 1.4-.7 5.2-1 8.5-.7 6.9-1.4 12.2-1.9 15-1.2 6.2-2.4 17-3.2 28.5-2.4 32.2-2.4 95.6 0 120.5.5 4.7 1.1 10.7 2.1 22.7.3 2.9.7 6.4 1 7.8.2 1.4.7 4.3 1 6.5.4 2.2 1.3 6.2 2 9 .8 2.7 1.9 7.8 2.5 11.2.6 3.5 1.3 7.3 1.5 8.5.4 2.4 1.3 10.4 2 17.8.2 2.4.7 5.6 1 7 .7 3.5 1.2 6.2 1.9 10.2.5 3.5 6.9 29.5 10 41.3 3.6 13.4 8.1 27.6 10.5 33 1.4 3.2 4.3 10.9 4.6 12.5.9 3.6 2.5 8 6 16 2 4.7 3.8 9.2 4 10.1.2.9.8 2.5 1.3 3.5.6 1.1 3.6 7.2 6.9 13.7 3.2 6.5 6.2 12.7 6.8 13.7.5 1.1 1.3 2 1.7 2 .5 0 .8.6.8 1.2 0 .7 2.4 4.3 5.3 8 2.8 3.7 6.9 9.1 9 12 2 2.9 5 6.7 6.5 8.4 1.5 1.7 4 4.8 5.6 6.8 1.6 2.1 5.6 6.3 8.9 9.4 3.3 3.1 8.6 8.2 11.7 11.2 3.2 3 8.6 8 12.1 11 3.4 3 6.9 6.3 7.8 7.4.9 1 2.2 2.4 2.9 3.1.6.8 1.2 2.1 1.2 2.9 0 .9.5 1.6 1.2 1.6.6 0 .8.3.5.6-.3.4-.1 1.6.5 2.7s1.2 5.5 1.4 9.7c.4 12.4 5.7 20.9 13.5 21.8 1.7.2 4.1-.4 5.4-1.2 1.4-.9 2.6-1.6 2.8-1.6.7 0 7.3 13.8 8.2 17.2.2.5.3.9.5 1 .1.2.3 1.1.5 2.1s.7 2.6 1.1 3.5c.9 2 .7 1.6 2.2 6.7.6 2.2 1.4 5.6 1.7 7.5.3 1.9 1 5.2 1.6 7.3 1.1 4.1 1.5 18.9.6 20.3-.3.5-.8 3.4-1.1 6.4-.3 3-.9 6.6-1.2 8-.2 1.4-.7 3.8-.9 5.5-.2 1.6-.7 5.2-1 8-.4 2.7-.8 5.7-.9 6.5-.1.9-.5 2.1-1 2.8-.4.6-.5 1.5-.2 2 .2.4 0 3-.6 5.7-.5 2.8-1 6.6-1.1 8.5-.1 1.9-.5 3.9-.8 4.5-.3.5-.4 6.2-.3 12.5.6 21.8.9 23.1 6.2 29.2 1.5 1.7 2.6 3.5 2.4 4-.1.5 1.8 1.7 4.3 2.8 2.5 1.1 4.5 2.4 4.5 2.9s1.7 2 3.7 3.2c3.6 2.2 6.9 4.8 9.9 7.6.7.7 1.7 1.3 2.3 1.3.6 0 1.1.4 1.1 1 0 .5.6 1 1.4 1 .8 0 1.6.3 1.8.7.1.5 1.9 1.6 3.8 2.6 5.9 3 9.5 5.2 9.8 5.9.2.5 1 .8 1.8.8s1.4.4 1.4 1c0 .5 1.1 1.2 2.5 1.6 1.4.3 2.5 1 2.5 1.5s.3.8.8.7c.8-.3 26.9 12.7 28.9 14.4.7.6 1.3.8 1.3.4 0-.3 2.9.9 6.4 2.8 3.6 1.9 6.7 3.2 7 2.8.4-.3 1.9.4 3.4 1.5s4.5 2.6 6.7 3.3c2.2.7 9.4 3.9 16.1 7.1 6.6 3.3 12.6 5.9 13.2 5.9.6 0 2.8.7 4.9 1.6 2.1.9 4.7 2 5.8 2.4 1.1.5 3.6 1.5 5.5 2.3 2.8 1.2 13 4.7 15 5.2.3.1 1.8.7 3.3 1.3 1.6.7 3.1 1.2 3.3 1.2.3 0 2.4.9 4.7 1.9 2.4 1.1 5.5 2.3 7 2.6 1.5.4 3 1.1 3.3 1.6.3.5 1.5.9 2.8.9 1.2 0 2.6.4 3.1.9.9.8 11.5 5 14 5.5.6.1 2.7 1 4.9 1.9 2.1.9 4.2 1.7 4.7 1.7s1.8.5 2.9 1c1.1.5 2.9 1.4 4 2 1.1.5 2.5 1 3 1 .6 0 3 .9 5.2 2 2.3 1.1 4.9 2 5.8 2 .9 0 2 .4 2.6 1 .5.5 2.5 1.1 4.4 1.4 1.9.3 5.1 1 7 1.6 1.9.6 4.9 1.4 6.5 1.6 4.6.8 10.8 2.4 13 3.4 3.8 1.6 20.3 6.5 30.5 9 1.9.5 6.1 1.6 9.4 2.5 3.2.9 7.3 1.8 9 2.1 5.5.8 10 1.5 12.1 1.9 2.9.5 8.5 1.4 12 1.9 1.7.2 3.7.7 4.5 1 2.5.9 7.3 1.9 10.3 2 1.5 0 2.7.5 2.7 1 0 .4.6.6 1.4.3.7-.3 1.8-.1 2.3.4 1 1 9.5 1.5 11.1.5.5-.3 1.3 0 1.5.6.4 1 .6 1 .6.1.1-.7.7-1 1.5-.7.8.3 2.9.7 4.8.9 1.8.2 3.3.4 3.3.5 0 .2 1.4.4 3 .5 1.7.2 3 .4 3 .5 0 1.1 37.3 2.1 38 1 .4-.6 1.1-.8 1.6-.5.5.4.9.1.9-.6s.3-.9.7-.5c.9.8 10.3-8.4 10.3-10.1 0-.7.4-1.3.9-1.3s1.1-.8 1.5-1.8c.3-.9 1.5-3.1 2.6-4.7 1.1-1.7 2.5-4.1 3.1-5.5.6-1.4 1.8-3.3 2.7-4.4.9-1 1.6-1.9 1.4-2-.2 0 .2-1.5.8-3.1 4.1-11 6.3-16.4 7.7-19 1-1.7 1.7-3.2 1.6-3.5-.1-.8 1.6-5.3 3.1-8 .8-1.4 1.5-2.8 1.5-3.3 0-.4.8-2.4 1.7-4.5.8-2 2.3-5.5 3.2-7.7.8-2.2 2-4.3 2.6-4.7.6-.4.8-.8.3-.8-.4 0 .2-1.8 1.3-4s1.7-4 1.4-4c-.4 0 .1-.9 1.1-2s1.5-2 1.2-2c-.5 0 .7-3 6.4-15.7 1-2.4 1.9-4.6 1.9-5 0-.5.6-1.9 1.3-3.3.7-1.4 2.1-4.8 3.1-7.5 1-2.8 3.6-9.1 5.6-14 4.5-10.9 5.2-12.7 5.5-14 .2-.6 1.2-3.1 2.3-5.5 2.3-5.1 13.2-32 13.6-33.5.5-1.9 2.9-7.5 8.5-19.7 3.4-7.4 4.4-10.2 4.3-11.1-.1-.4.2-.7.8-.7.5 0 1-.5 1-1.1 0-.5 1.5-4 3.2-7.7 1.8-3.7 3.3-6.9 3.4-7.2.1-.8 1.9-4.9 4.9-11.4 1.5-3.3 2.8-6.5 3-7 .2-1.1 2.6-6.8 5.1-12.3.8-1.7 1.4-3.8 1.4-4.7 0-.9.5-1.6 1-1.6.6 0 1-.6 1-1.3 0-1.1 2.9-8.6 7.6-19.7 2.9-6.7 5.1-12.3 5.3-13.3 0-.4 1.2-3 2.6-5.7 1.4-2.7 2.5-5.3 2.5-5.7 0-.5.8-3.1 1.7-5.8 1-2.8 1.8-5.3 1.9-5.8.1-.4.3-.9.4-1.2.1-.3.4-1 .5-1.5.1-.6.4-1.2.5-1.5.1-.3.3-.8.5-1.3.1-.4.4-1.4.8-2.2.3-.8 1.5-6 2.8-11.5 1.2-5.5 2.4-10.5 2.7-11 .4-.6.5-2 .4-3.2-.2-1.1.2-2.4.8-2.8.5-.3.8-1 .5-1.5-.3-.5-.1-2 .5-3.5.5-1.4 1.2-3.8 1.5-5.3.2-1.5 1.3-5.7 2.4-9.5 1.1-3.7 1.7-6.7 1.4-6.7-.3 0-.1-.6.4-1.3.6-.6 1.4-3 1.8-5.2 1-4.8.9-4.5 1.8-7 .3-1.1.8-3.1 1.1-4.5.3-1.4.9-4 1.5-5.8.5-1.8 1-3.5 1-3.7.1-.3.1-.6.2-.8.1-.4.7-3 1.2-5.7.3-1.4 1-3.7 1.5-5.1.6-1.5.8-2.9.5-3.2-.3-.3-.1-1.2.3-1.9.5-.7 1-1.8 1.1-2.3.1-.6 1.2-4.4 2.3-8.5 1.2-4.1 2.4-8.6 2.7-10 1-4.8 1.1-5.5 1.3-5.5.2 0 .7-1.9 1.5-5.7.3-1.5 1-3.9 1.5-5.3s.8-2.5.6-2.5c-.2 0 .5-2.8 1.5-6.3 2.3-7.1 7.1-25.6 7.2-27.5 0-.6.3-1.2.7-1.2.4 0 .7-.6.7-1.3.1-1.7 4.2-17.6 5.5-21.2 1.5-4 3.2-8.3 4.8-12 .8-1.7 1.4-3.2 1.4-3.5.1-.3.9-2.2 1.9-4.3 1-2.1 2-4.5 2.2-5.5.3-.9 1.6-5.1 3-9.2 1.5-4.1 2.8-8.8 3-10.5.1-1.6 1-5.9 2-9.4.9-3.5 1.8-7.8 2-9.5.6-4.4 1.3-7.5 1.9-8.4.2-.4.7-2.8 1.1-5.2.3-2.5 1.2-6.8 2-9.5 1.5-5.2 2.6-11.2 2.9-15.3 0-1.2.4-2.2.7-2.2.3 0 .6-.6.6-1.3.1-.6.7-3.9 1.3-7.2 1.7-8.6 1.8-9 2-9.3.2-.1.3-1 .4-2 .1-.9.6-3.3 1-5.2.5-1.9 1-4.6 1.2-6 .1-1.4.5-3.6.9-5 .3-1.4.8-3.6 1-5 .2-1.4 1.6-8.4 3-15.5 1.5-7.2 2.8-14.3 3.1-16 .2-1.6.7-3.9 1.1-5 .4-1.1.7-2.7.9-3.5.2-1.3 3.9-19.1 5.1-24.8.5-1.9.8-2 2.1-1 1.3 1.1 1.4 1 .3-1-1.2-2.3-.6-9.2.9-9.2 1.1 0 .7 4.4-.5 5.2-.6.5-.5.8.2.8s1 .7.7 1.7c-.5 1.5-.4 1.6.5.3.6-.8 1.1-1.3 1.2-1 0 .3.2 1.3.4 2.2.2 1-.1 1.8-.6 1.8s-.9.5-.9 1.2c0 .6.9.3 2-.7s2-1.3 2-.7c0 .6-1 1.8-2.2 2.6-1.2.9-1.7 1.6-1.1 1.6.7 0 1.5-.5 1.9-1.1.4-.8.9-.7 1.5.2.5.9.2 1.7-.9 2.2-1.3.5-1.1.6.6.3 1.3-.2 2.6.2 3.3 1.2.7 1.3.9 1.3.6.2-.2-.8 0-2.3.5-3.3.8-1.6.7-1.7-1-.8-2.3 1.2-3.8-.9-1.9-2.8 1-1-.1-1.6-2.5-1.2-.4 0-.5-.8-.3-1.9.2-1.2 0-1.8-.5-1.5-.5.3-.7-.4-.5-1.5.2-1.1 0-1.8-.4-1.6-.4.3-.8-.1-.8-.7 0-.7 1-1.4 2.1-1.5 1.7-.1 1.8.1.6.8-1.4.9-.7 1.4 1.3 1.1.4 0 .7.4.7.9 0 .6-.4 1-.9 1-1.6 0-.5 3 1.6 4.5 2 1.4 2.2 1.3 2.8-.6.4-1.1.9-1.8 1.2-1.6.2.3-.1 1.5-.7 2.7-1.1 2-1 2.1.9 1.5 2-.6 2.6.2 2.2 2.7 0 .5.4.8.9.8s.9.3.9.7c-.4 2.3.5 2.9 4.1 2.9 2.2 0 4-.4 4-.8 0-.5-1.3-.6-3-.3-2.2.4-2.8.2-2.4-.8.3-.8 1.7-1.3 3.3-1.2 2.1.1 2.8-.2 2.4-1.2-.7-1.9.7-1.6 2.4.4 1.2 1.6 1.2 1.4.2-1-1.2-2.7-2.9-3.7-2.9-1.6 0 .5-.5.7-1.2.3-.7-.5-.8-.3-.3.6.6.9.4 1.1-.5.5-.9-.5-1.1-.4-.6.3.4.7.2 1.2-.3 1.2-.6 0-1.1-.6-1.1-1.3 0-.7-.3-.8-.8-.2-1.1 1.5-2.9 1.6-2.9 0 0-.7.7-1.1 1.5-.7 1.1.4 1.3.2.7-.9-.7-1.1-.6-1.2.7-.2 1.5 1.3 2.8.8 2.8-.9 0-.5-.4-.7-.9-.4-.5.3-1.4-.1-2-.8-.9-1-.9-1.6-.1-2.1.6-.4 1-.3.9.2-.4 2.1.2 2.5 1.4.8 1.1-1.4 1.6-1.5 2.2-.5.5.9.4 1.1-.3.6-1.2-.7-1.7.6-.6 1.7.9.9 3.5-.4 2.8-1.4-.3-.5.2-.6 1-.3.9.3 1.4.9 1.2 1.3-.7 1.1 1.2 3.6 2.1 2.8.4-.5.2-1.2-.5-1.6-1-.6-1-1 .2-2 1.1-1 1.5-.9 1.9.1.2.8.4.8.3-.2-.1-.8-1.1-1.6-2.4-1.6-1.2-.1-2.5-.3-2.9-.4-.5-.1-1.1-.2-1.5-.1-.5 0-.8-.4-.8-.9 0-1.4 1.3-1.3 2.8.2.8.8 1.2.9 1.2.1 0-1.4 2.3-1.1 4.3.5 1.3 1.1 1.5 1 1.2-.5-.1-1 .2-2.3.6-2.9 1.1-1.4.1-4.4-1.4-4.4-.7 0-.7.4.1 1.2 1.4 1.4 1.6 2.8.3 2.8-1.7 0-1.9-4-.3-5 1.6-.9 1.6-.9 0-1-2.1 0-3.2-1.6-1.7-2.6.8-.4.9-.3.5.4s-.1 1.2.8 1.2c1.8 0 4.9 5.3 3.8 6.5-.4.5-.1.5.6.1.8-.5.9-1.3.2-2.6-1.5-2.7-1.2-3.8.5-1.6 1.3 1.7 1.4 1.6 1.1-1-.2-1.6-.1-3.5.1-4.2.8-1.9 2.3-1.4 1.7.5-.5 1.5-.4 1.6.5.3.7-1 1.1-1.1 1.1-.3 0 .7.5 1.3 1.1 1.3 1.4 0-1.9-4.5-3.4-4.5-.6-.1-1.6.4-2 1-.5.6-.7.5-.5-.4.6-2.2 3.7-2.2 5.9 0 1 1 1.9 1.4 1.9.8 0-.5.4-.8.9-.5.5.4.7-.3.4-1.4-.3-1.1-.9-2-1.4-2-.5 0-.6.8-.3 1.7.4 1.1.3 1.4-.3.7-.4-.6-1.6-1.5-2.6-2.1-1.5-.8-1.1-1 2.3-1.1 2.3-.1 3.9.2 3.6.6-.3.5.1.9.9.9 1.2 0 1.2-.3.2-1.5-1-1.3-.8-1.4 1.3-.8 1.9.6 2.1.5 1-.3-.8-.6-2.7-.8-4.3-.6-2.6.5-2.7.5-1-1.5 2.1-2.4 2.4-2.5 1.7-.5-.5 1.1-.2 1.3 1 .9.9-.3 1.3-1.1 1-1.8-.3-.6.1-.3.8.6 1.5 1.7 4.1 1.9 5.5.3.4-.4.3-.5-.3-.2-1.6.9-2.5-1.8-1.1-3.2.6-.6 1.8-1.1 2.7-1.1 1.3 0 1.3-.1 0-1-.8-.5-1-1-.5-1 .6 0 .1-.7-.9-1.5-1.1-.8-1.6-1.8-1.2-2.2.4-.4 1-.3 1.4.3.4.6 1.7 1.3 2.9 1.6 1.6.4 2 .2 1.6-.8-.4-1 0-1.2 1.3-.8 1.2.4 1.5.3.7-.3s-.8-1.2.1-2.5c.7-1 1.6-1.5 1.9-1.2.3.3 1-.3 1.6-1.5.8-1.4.8-2.2-.1-2.7-.7-.4-.8-.3-.4.4s.2 1.2-.3 1.2c-1.6 0-1.3-1.6.6-3.1 1.1-1 1.4-1 .9-.2-.4.7-.3 1.3.2 1.3 1.6 0 2.2-1.3 1.1-2.6-1-1.2-.7-1.2 3-.5.2.1-.1.7-.7 1.3-.5.8-.6 2.2-.1 3.3.7 1.7.8 1.8.8.2.1-1 .8-2 1.7-2.4 1.2-.4 1.3-.7.3-1.4-.8-.4-1-1.1-.6-1.5.3-.4 1.3-.2 2 .4 1.7 1.5 2.8.6 2-1.6-.5-1.4-.3-1.5.8-.5.7.7 1.8 1.3 2.4 1.3.5 0 .2-.5-.8-1.1-.9-.6-1.5-1.5-1.1-2.1.4-.6 1-.5 1.5.3.7 1.1.9 1 .9-.3 0-1-.7-1.6-1.9-1.5-1.1 0-1.8.4-1.5.8.2.4-.1 1.1-.8 1.5-.7.4-1 .4-.6-.1.4-.4.2-1.5-.5-2.3-.8-1.1-.8-1.4 0-.9.6.4 1.4.3 1.8-.2.5-1 3.6-.7 5.5.4.6.3.7-.1.4-1-.4-1.1-.2-1.4.9-.9.8.3 1.8.1 2.2-.5.3-.6 0-.9-.8-.6-1 .4-1.3-.5-1.3-3.7.1-3.4.5-4.4 1.8-4.4 1.6 0 1.6.2.1 1.8-.9 1-1.2 1.8-.6 1.8.5 0 1.6-1.1 2.3-2.5 1-1.9 1.6-2.2 2.7-1.3 1.1.8 1.2.7.7-.6-.4-1-1.4-1.5-3-1.2-2.1.4-2.2.3-1.1-1.5.6-1 1.4-1.9 1.8-1.9.3 0 .6-.6.6-1.3 0-.6.4-2 .8-3 .5-1.1.3-1.7-.6-1.7-.9-.1-.8-.4.4-1.1.9-.6 1.4-1.5 1.1-2.1-.5-.7-.2-.8.5-.3.9.5.9 1.1.2 1.8s-.3 1.6 1.2 2.9c1.2 1.1 1.6 1.7 1 1.3-1.4-.7-1.8 1.1-.5 1.9.4.2.9 1.9 1 3.6.1 1.8.6 4 1.1 4.9.5.9 1.2 3.4 1.6 5.6.9 4.4.9 4.4 1.8 6.5.3.8.8 2.8 1.1 4.5.2 1.6 1.4 6.8 2.6 11.4 1.2 4.7 2.4 9.2 2.5 10 .2.9.4 1.6.5 1.6.1 0 .3 1.1.6 2.5.2 1.4.7 3.8 1 5.5.3 1.6.8 4.9 1.1 7.2.3 2.4.8 4.3 1.2 4.3.4 0 .8 1.6.9 3.5.1 2 .4 4 .7 4.4.2.5.7 2.6 1 4.7.3 2.2 1 5.1 1.6 6.5.6 1.4.9 3 .8 3.5-.2.5.5 4.3 1.5 8.4 1 4.1 2 8.6 2.2 10 .2 1.4.7 3.6 1 5 .3 1.3.7 4 1 5.8.2 1.9.7 3.8 1 4.3.5.9.9 2.5 1.8 8 .3 1.9 1.5 8.1 2.6 13.9 1.2 5.8 2.3 12.3 2.6 14.4.3 2.2.8 4.4 1.1 4.9.3.4.7 2.3.9 4 .3 1.8 1.1 6.1 1.9 9.7.8 3.6 1.7 8 2 9.9.3 1.9.8 3.8 1.1 4.3.3.5.8 2.6 1 4.6.7 5.5.9 6.6 1.5 7.7.8 1.3 2 7.2 3.3 15.9.4 2.1.9 4.2 1.2 4.8.3.5.8 2.4 1.1 4.1.2 1.8 1.1 5.9 1.8 9.2 1.6 6.8 2.5 10.9 3 14.4.2 1.4.8 3.4 1.3 4.5.6 1.2 2 5 3.2 8.6 1.9 5.4 4.5 12 11 27.5.7 1.8 2 6.6 2.1 8 0 .3.6 2.3 1.4 4.5.8 2.2 1.2 4 .9 4-.2 0 .2 1.6 1 3.5s1.2 3.5.9 3.5c-.3 0 .1.7.8 1.7.8.9 1.3 1.8 1.1 2-.4.6 1.4 8.7 4.4 18.8 2.1 6.9 1.9 6.2 3.9 14 .9 3.3 1.8 7.1 2.1 8.5.3 1.4 1.1 4.7 1.9 7.3.8 2.7 1.4 5.2 1.3 5.5-.1.4.4 1.9 1 3.3.5 1.4 1.3 4.2 1.6 6.2.3 2.1 1 4.5 1.5 5.5.7 1.4 3.2 10.9 4.6 17.7.2 1.1 1.4 5.6 2.5 10 1.2 4.4 2.3 8.7 2.5 9.5.2.8.4 1.5.5 1.5.1 0 .3 1.1.6 2.5.2 1.4.9 3.6 1.4 5 .5 1.4 1.2 3.6 1.4 5 .3 1.4.5 2.5.6 2.5.1 0 .3.7.5 1.5.1.8 1.2 5.1 2.3 9.5 1.1 4.4 2.3 9.3 2.6 11 1.3 7.9 8.6 34.5 11.3 41.5.4.8.7 1.7.8 2 .1.3.8 1.8 1.5 3.5.7 1.6 1.4 3.2 1.5 3.5.9 2.7 1.9 4.9 3.1 7.2.8 1.6 1.2 2.8.9 2.8-.6 0-.1 1 4.2 9.2.9 1.8 1.6 3.3 1.4 3.3-.3 0 .7 2.7 2.7 7.5.8 1.9 3 7.3 4.9 12 1.9 4.7 4 9.6 4.6 11 .6 1.4 1.1 2.7 1.2 3 .6 1.6 1.9 5 3.5 8.5 1 2.2 2.8 6.5 4.1 9.5 1.2 3 3.3 7.4 4.6 9.7 1.3 2.4 2.4 4.6 2.4 5 .1.5 1.4 3.7 3.1 7.3 1.7 3.6 3.6 7.8 4.3 9.5.8 1.6 2.7 6 4.4 9.7 1.6 3.8 2.8 6.8 2.5 6.8-.3 0 .1 1.2.9 2.7 1.5 2.9 3.1 6.6 4 9.3.3.8 3.1 7.6 6.2 15s6.5 15.7 7.5 18.5c1 2.7 2.6 6.8 3.6 9s1.8 4.2 1.9 4.5c.1.3.5 1.4 1 2.5.4 1.1 2.3 5.8 4.2 10.5 1.8 4.7 3.8 9.5 4.3 10.7.6 1.3 1.5 3.5 2.1 5 .6 1.6 1.7 3.9 2.4 5.3s1.8 4.2 2.4 6.2c.7 2.1 1.6 3.8 2 3.8.3 0 .8 1.2.9 2.7.1 1.5.6 2.9 1.1 3.2.4.3 1.4 2.3 2 4.3.7 2.1 1.7 4 2.2 4.4.5.3.7 1 .4 1.5-.4.5-.1.9.4.9.6 0 1.1.9 1.1 1.9 0 1.1.4 2.2.9 2.5.5.3 1.2 1.8 1.5 3.2.4 1.4 1.6 4.5 2.6 6.8 1 2.2 4.4 10.4 7.5 18.1 5.6 14.2 7.8 18.8 12.4 26 1.4 2.2 2.5 4.2 2.6 4.5.1 1.6 11.5 15 11.5 13.5 0-.3 1 0 2.3.6 2.6 1.5 9.7 2.9 9.7 2 0-.3 4.6-.7 10.3-.7 11.1-.2 23.5-1.2 24.9-2 .5-.3 3.5-.8 6.6-1 3.1-.3 6.2-.7 6.9-.9.7-.2 1.5 0 1.8.5.6.9 4.6.5 10-1.1 1.7-.4 4.6-1.1 6.5-1.4 1.9-.3 4.4-.9 5.5-1.2 1.1-.4 2.7-.7 3.5-.8.8-.1 2.9-.4 4.5-.8 4.6-1.1 12.2-2.4 18.3-3.2 1.8-.2 8-1.5 13.8-3 5.8-1.5 11.3-2.8 12.2-3 .9-.2 3.1-.8 4.7-1.5 1.7-.6 3.1-1.1 3.3-1.1.4.2 5.6-1 7.2-1.7.8-.3 2.2-.7 3-.8.8-.1 2.6-.6 4-1.2 1.4-.5 2.7-1 3-1 .3 0 1.9-.6 3.5-1.2 3.8-1.5 5.7-1.9 12.5-3.1 3-.6 5.7-1.3 6-1.7.3-.4 1-.8 1.5-.9 7.7-1.2 8.5-1.4 24.5-7.5 5.8-2.2 13.4-5.1 17-6.5 3.6-1.4 9.2-3.5 12.5-4.8 3.3-1.3 7.2-2.7 8.8-3 1.5-.4 2.7-1.1 2.7-1.6s.8-.9 1.9-.9c1 0 4-1 6.7-2.2 2.7-1.2 5.6-2.3 6.4-2.4.8-.2 2.3-.7 3.5-1.3 1.1-.5 5.4-2.1 9.5-3.6s8.4-3 9.5-3.5c2.5-1 5.8-2.3 6.5-2.4.3-.1 1.4-.7 2.5-1.2 2.3-1.3 7.6-2.8 8.8-2.6.4.1.7-.3.7-.8 0-.6.4-1 .9-1s5.7-2.3 11.7-5.2c6-2.9 11.4-5.3 11.9-5.4.6 0 1.5-.2 2.2-.2.6-.1 1.9-1 2.8-1.9 1-.9 2.5-1.7 3.5-1.8 1-.1 2.5-.7 3.4-1.4.9-.8 1.6-1.1 1.6-.7 0 .3 1.7-.3 3.7-1.4 2.1-1.1 4.3-2 5-2 .6 0 1.3-.3 1.5-.8.2-.4 2.8-1.8 5.8-3.2 3-1.3 6.6-3.1 8-4 1.4-.9 4.1-2.3 6-3 1.9-.8 3.8-1.8 4.1-2.3.3-.4 1.3-.9 2.2-1.1.8-.1 3.9-1.7 6.9-3.6 2.9-1.9 6.6-4 8.3-4.8 1.6-.7 3.2-1.6 3.5-2 .3-.4 1.9-1.4 3.5-2.2 4.1-2 8-4.7 14.5-9.9 3-2.4 6.5-4.7 7.8-5.2 1.3-.5 2.1-1.3 1.8-1.8-.4-.5 1.5-1.9 4-3.1 2.5-1.3 4.9-3.2 5.4-4.4.4-1.1 1.9-3.3 3.3-4.7 3.6-3.6 4-6.1 4-25.9 0-17-.2-19.9-1.8-30.5-.5-2.8-.9-5.9-1.1-7-.1-1.1-.3-2-.4-2-.2 0-.3-1.1-.5-2.5-.1-1.4-.5-3.9-.9-5.7-.4-1.7-.9-4.7-1.2-6.5-1.2-9.7-1.6-12.5-2-14.8-1.1-5.6-.9-18.9.4-24.5.7-3.3 1.5-6.7 1.6-7.5 2-10.6 10.4-32.8 12.8-33.8.5-.2.6-.8.2-1.3-.8-1.3.9-1.1 4.5.7 8.1 4 17.8-6 17.8-18.6.1-5.7 1-11.6 2.3-13.9.5-1 .6-2.1.3-2.5-.3-.3-.1-.6.5-.6.7 0 1.2-.6 1.2-1.4 0-.8 4.3-5.4 9.6-10.3 17.4-16 31.4-29.5 33.9-32.5.6-.7 2.8-3.6 5-6.3 2.2-2.8 4.8-5.7 5.7-6.6 1-.9 1.8-2 1.8-2.4 0-.4.8-1.7 1.8-3 .9-1.2 2.4-3.3 3.2-4.5.8-1.3 2.7-3.7 4.1-5.4 6.1-7.4 17.3-28 21.8-40.1 1.2-3.3 2.6-6.4 3.1-7 .4-.5 1.1-2.1 1.5-3.4.4-1.3 1.3-3.8 2-5.5.7-1.7 1.3-3.3 1.2-3.6 0-.3.5-1.5 1.1-2.6.6-1.2 1.4-3.6 1.7-5.5.3-1.9 1.3-4.4 2.1-5.7.8-1.2 1.2-2.7.9-3.2-.3-.6-.1-1 .4-1 .6 0 1.1-.6 1.1-1.3 0-.6.6-2.4 1.4-3.9.8-1.5 1.7-4.2 2.1-6 .4-1.8 1-3.8 1.3-4.3.4-.6.7-1.5.9-2 .1-.6.4-2 .7-3.2.2-1.2 1-3.1 1.6-4.2.6-1.2.8-2.1.6-2.1-.3 0-.1-1.1.4-2.5s1.2-3.6 1.4-4.8c.2-1.2 1-4.2 1.7-6.7s1.4-5 1.5-5.5c.1-.6.3-1.3.4-1.8.4-1.2.6-2.1 1.5-6.2 1.3-5.6 1.2-5.5 1.5-5.8.1-.1.3-.9.5-1.7.2-.8 1-4.4 1.8-8 .9-3.6 1.8-8.3 2.2-10.5.3-2.2.7-4.7 1-5.5.5-2.2 1.6-10.6 2.1-17 .2-3 .6-6.6.9-8 1.3-5.9 1.9-9.6 2.9-16.6.2-1.1.6-2.6.9-3.1.4-.6.9-2.8 1.3-4.8.3-2.1.8-4.7 1-5.9 1.1-5.1 2.3-14.9 3-24.1.2-3.3.7-8.3.9-11 2.5-27.2 2.6-108.1.2-111.3-.6-.7-.6-1.2 0-1.2.5 0 .8-1.2.7-2.8-2-20.8-2.4-24.5-2.9-27.2-.3-1.4-.7-4.5-1-7-.2-2.5-.6-5.4-.9-6.5-.4-1.8-1.4-11.1-2.1-18.5-.1-1.4-.3-2.5-.4-2.5-.1 0-.4-1.6-.6-3.5-.5-4.2-1.4-10.6-2-14-.2-1.4-.6-4.8-1-7.5-.6-4.8-.9-6.4-1.8-11-.3-1.1-.8-4.3-1.2-7-1.1-7-1.2-7.5-1.9-12-.4-2.2-1.1-5.4-1.6-7-.7-2.5-2.9-12.5-3.5-16-.1-.6-.3-1.2-.4-1.5-.4-.9-1-3.4-1.6-7-.4-1.9-1.8-6.7-3.2-10.5-1.3-3.9-2.6-7.8-2.8-8.8-.2-.9-.7-2.3-1.2-3-.4-.6-.8-1.4-.8-1.7-.6-5.2-13.3-32.5-16.9-36.3-.6-.7-3.1-4.1-5.5-7.7-8.1-11.8-26.4-31.6-35.7-38.6-2.1-1.6-4.8-3.7-5.9-4.8-5.1-4.8-17-11.2-30-16.1-3.8-1.4-7.7-3-8.5-3.5-3.9-2.4-8.1-4.2-8.7-3.7-.3.4-2.1 0-3.9-.8-1.9-.8-3.4-1.2-3.4-1 0 .2-1.5-.1-3.2-.6-1.8-.5-6.7-1.1-10.8-1.4-4.1-.3-9.1-.8-11-1.1-4.7-.6-4.7-.6-11 .1-3 .3-7.5.8-10 1-4.4.5-8.5 1.2-8.5 1.5 0 .1-1.1.3-2.5.5-3.2.4-5.8 1-9.2 2.4-1.6.6-2.8.8-2.8.5 0-.4-.7-.1-1.5.6-.8.6-1.9.9-2.5.5-.5-.3-1-.1-1 .4 0 .6-.6 1.1-1.3 1.1-.8 0-4.6 1.6-8.6 3.5-3.9 1.9-7.6 3.5-8.1 3.5-.6 0-1 .4-1 1 0 .5-.4 1-.9 1-.9 0-4.9 2.3-14.6 8.3-1.1.6-2.2 1.4-2.5 1.8-.3.3-4.5 3.4-9.5 7-4.9 3.5-10.2 7.5-11.7 8.8-1.5 1.3-5.3 3.9-8.4 5.8-5.1 3.1-6.4 3.4-13 3.4-6.7 0-7.8-.3-12-3.2-4.8-3.2-10.3-8.6-10.5-10-.1-.5-.2-1.2-.3-1.7-.1-.7-3.6-9.6-6.1-15.7-2.8-6.7-4.5-11.5-4-11.5.3 0-.1-1.4-1-3-.9-1.7-1.3-3-.9-3s.1-.7-.6-1.5-1-1.5-.7-1.5c.3 0-.3-2.4-1.4-5.3-1.1-2.8-2.2-6.5-2.5-8.1-.2-1.6-1-3.8-1.7-5-.6-1.1-1-2.4-.9-2.8.1-.4-.5-2.2-1.2-4-.8-1.8-1.4-3.6-1.5-4.1-.1-1.1-3.1-11.5-5.1-17.7-3.2-10-4.1-12.9-4.5-14.7-.2-1-1.3-4.4-2.4-7.5-1.2-3.1-2.4-6.5-2.6-7.6-1.1-5.8-9.3-12.2-15.7-12.2-1.9 0-3.8-.3-4.2-.7-.3-.4-1.4-.8-2.3-.9-.9-.2-2-1-2.5-1.8-.5-.9-2.7-2-4.9-2.6-2.3-.6-5.2-2.3-6.6-3.8-1.3-1.4-3.2-2.7-4.1-2.8-.9-.2-1.8-.8-2-1.3-.2-.6-1-1.1-1.8-1.1s-1.4-.7-1.4-1.5-.9-1.5-2-1.5c-1.3 0-2.4-1-3-2.5-.5-1.4-1.4-2.5-2-2.5-.6 0-.8.4-.5 1 .3.5.3 1.5 0 2-.9 1.4-3.5-1.4-3.5-3.7 0-1.1-.8-1.9-2.2-2-1.3-.1-3.4-.4-4.8-.7-7.9-1.8-10.9-2.2-13.1-2.1-1.3.1-2.7-.2-3.1-.8-.4-.7-1.2-.6-2.4.4-2.1 1.7-1.7 1.7-3.7 0-1-.7-1.7-1.1-1.7-.8 0 .3-1.9 0-4.2-.7-4.2-1.2-17.3-1.4-18.4-.3-1.3 1.2-3.2-.6-2.9-2.6.4-2 .3-2.1-.9-.4-1.1 1.4-1.9 1.6-4 .7-1.4-.5-2.6-.6-2.6-.1s-2.9.7-6.5.5c-3.9-.2-6.5 0-6.5.6 0 .5-.3.9-.7.8-.5-.1-2.3.2-4.1.6-2.1.5-3.8.4-4.7-.4-1.6-1.3-3.9-.4-2.9 1.2.5.7-.2.9-2 .6-1.4-.3-2.6-.2-2.6.1 0 .4-3.5.8-7.7.9-6 .1-9.5-.5-15.3-2.4-4.1-1.4-8.9-2.7-10.7-2.8-1.7-.2-3.6-.7-4.2-1.1-1.4-.8-7.7-1.5-19.6-2.1-9.2-.4-16-1.1-16-1.4 0-.2-1.3-.4-3-.5-1.6-.2-3.2-.4-3.5-.5-.3-.1-2.3-.1-4.5 0s-6.5.3-9.6.5c-3.1.1-6.1.5-6.7.8-.5.4-2.7.9-4.8 1.2-2.2.3-5 .7-6.4 1.1-3.2.7-9.9 1.6-12.7 1.8-1.3 0-2.3.4-2.3.7 0 .8-5.1.2-10-1.3-5.6-1.8-15.6-1.4-18.9.7-1 .6-1.2.4-.6-.6.5-.8-.1-.5-1.3.5-1.9 1.7-2.2 1.7-2.2.3 0-1-.5-1.7-1.1-1.7-.5 0-.7.4-.4 1 .3.5 0 1.1-.7 1.1-4.5.5-6.4.3-7.5-.5-.8-.5-1.3-.4-1.3.3s-.8.8-2.5.1c-1.8-.7-2.5-.6-2.5.3 0 .6-.5.4-1.1-.6-.6-.9-1.5-1.5-2-1.1-.5.3-.9.2-.8-.3.4-2.1-.2-2.5-1.4-.9-1.1 1.5-1.9 1.6-4.9.8-2-.5-4-.7-4.5-.3-.4.4-3.2 1.8-6.1 3-4.2 1.8-5.9 2-8.7 1.2-1.9-.5-3.5-.6-3.5-.1s-1.4.5-3.1 0c-1.8-.5-3.5-.7-4-.5-.4.3-1 .1-1.4-.5-.4-.6-1-.8-1.4-.6-.4.3-2.1.8-3.7 1.1-6.2 1.3-7.3 1.5-13.5 3.5-3.5 1.1-7.9 3-9.9 4.1-1.9 1.2-5.3 2.3-7.5 2.5-2.2.2-5.4.6-7.2.8-2.8.3-10.5 3.9-27.9 13.1-3.4 1.8-7.7 3.6-9.5 4-1.9.4-3.8 1-4.4 1.3-.5.4-1.8.8-2.7.9-2.1.3-16.6 5.1-19.3 6.4-1.1.5-3.1 1.1-4.4 1.4-3.2.6-6.6 2.9-10.6 7.3-7.1 7.9-9.2 9.7-11.6 10-3.6.3-11.5 3-17.3 5.8-2.8 1.3-5.7 2.2-6.5 1.9-.9-.3-1.2-.3-.9.1.4.3-1.8 2.6-4.8 4.9-5.6 4.4-9.9 10.8-8.9 13.4.4.9 0 1.2-1.4.8-1.1-.3-3 .5-4.6 1.9-1.5 1.3-3.2 2.1-3.8 1.7-.6-.4-.8 0-.4 1.1 1.1 2.8-2.2 5.6-6 5-2.1-.3-3.3-.1-3.3.6 0 .6-.4.8-1 .5-.5-.3-1-.1-1 .5 0 .7.7.9 1.6.6 1-.4 1.3-.2.8.6-.5.7-.3.8.6.3.9-.6 1.1-.4.5.5-.5.8-.4 1.1.2.7.6-.4 1.7.1 2.4 1.1.7.9.9 1.4.5 1-.5-.4-1.6-.2-2.4.5-1 .7-1.3.8-.9.1.4-.7 0-1.8-.9-2.5-1.3-1-1.7-1-2.6.2-.8 1.2-.9 1.2-.5-.1.7-2.4-2.5-7.2-4.5-6.7-1.2.4-1.5 0-1-1.2.5-1.3.3-1.4-.9-.4-.8.6-2 .9-2.6.5-.9-.5-.6-1.2.8-2.1 1.6-.9 1.9-.9 1.4 0-.5.7-.4 1 .3.5.6-.3 2.3.7 3.9 2.3 2.6 2.5 3.1 2.7 4.8 1.5 1-.8 1.4-1.4.9-1.4-.6 0-1.4.4-2 1-.6.6-1.4.3-2.2-1-.7-1.2-.8-2.1-.2-2.5.6-.3 1-.1 1 .4 0 1.5 1.7 1.4 2.3-.2.3-.9-.6-1.3-3.5-1.2-3.3.1-4.2-.3-5.6-2.7-1.8-3.1-3.8-4.2-4.8-2.7-.3.6-1.2.2-2.1-1-.8-1.2-1.1-2.6-.8-3.1.3-.6-.3-1-1.5-1s-1.8-.5-1.5-1c.3-.6-.1-1-.9-1s-2-.8-2.5-1.8c-.6-.9-1.1-1.1-1.1-.5 0 2.5-2 1.3-2-1.2 0-1.4-.4-2.5-.9-2.5s-1.3-.9-1.6-2c-1.4-4.5-9.4-10.4-19.8-14.8-4.5-1.8-8.9-3.7-9.7-4.1-.9-.5-3.4-1.2-5.7-1.5-3.4-.6-5.3-2-11.2-8.1-6.4-6.6-7.9-7.5-15.8-10.4-4.9-1.8-13.5-4.6-19.3-6.2-8.8-2.6-22.2-8.1-24-9.9-.3-.3-4.5-2.5-9.4-4.9-9-4.5-10.4-4.9-19.1-5.7-2.7-.2-6.1-1.2-7.5-2.2-3-2.2-11.6-5.3-12.4-4.4-.3.3-.6 0-.6-.7s-.6-1.1-1.4-.8c-.8.3-1.7.3-2-.1-.4-.3-1.2-.7-1.9-.8-.7-.2-3.2-.7-5.7-1.2-2.5-.4-5.8-.5-7.5 0-1.6.5-3.8.6-4.7.4-1-.2-2.1 0-2.4.5-.4.6-1.1.6-1.9-.1-1-.8-1.5-.8-2 0-.7 1.2-2.6.8-9.3-2.3-5.2-2.3-6.2-2.6-7.7-1.8-2.1 1.1-5.1.7-6.2-.8-1.1-1.4-1.2-1.4-1.3.2 0 1-.4 1.5-1 1.2-.5-.3-1-.2-1 .4 0 .5-1.7 1-3.7 1-2.1 0-5.5.2-7.6.5-3.2.3-4 .1-4.7-1.7-.7-1.8-.9-1.8-.9-.5-.1 2.2-2.9 2.4-3.7.3-.4-.8-1.1-1.2-1.7-.8-1.7 1.1-4.7 1.1-4.7 0 0-1.2-10.7-.1-15 1.6-2.6 1-4.3 1.1-11.5.2-7.3-.9-8.3-1.1-8.7-1.5-.2-.1-1.4-.3-2.8-.5-5.9-.8-9.1-1.4-9.9-1.9-2.3-1.4-19.2-2.4-24.7-1.4zM968 474.5c0 .3-.4.3-1 0-.5-.3-1-.1-1 .6s-.6.4-1.4-.6c-2.1-2.9-.8-5.1 1.5-2.6 1.1 1.1 1.9 2.3 1.9 2.6zm5 9c0 .8-.4 1.5-1 1.5-.5 0-.7-.7-.4-1.5.4-.8.8-1.5 1-1.5.2 0 .4.7.4 1.5zm10.3.1c-.3 1.5-2 1.5-3.3-.1-1.1-1.3-.9-1.5 1.1-1.2 1.3.2 2.3.8 2.2 1.3zm-5.3 3.8c0 .2-.8 1-1.7 1.7-1.6 1.3-1.7 1.2-.4-.4 1.3-1.6 2.1-2.1 2.1-1.3zM234 601.6c3 1.4 6 2.7 6.5 2.8.6.1 3.5 1.6 6.6 3.4 3.1 1.7 6 3.2 6.3 3.2.4 0 1.3.6 2.1 1.2.7.7 3.6 3.3 6.4 5.7 2.8 2.4 7 6.9 9.3 10 2.4 3.1 4.8 5.9 5.4 6.3 2.1 1.4 22.7 45.5 22.2 47.6-.1.7 1 3.3 6 14.2 5.6 12.2 8.2 18.4 8.2 19.6 0 .7.5 1.4 1 1.6.6.2 1.2 1.2 1.5 2.3 2.5 10.7 3.1 15.2 3 21.6-.3 8.8-.9 12.1-3.8 20.8-1.1 3.6-2 6.9-1.9 7.3.1.5-.3.8-.9.8-.5 0-.8.4-.5.8.3.5-.1 2-.9 3.5s-1.1 2.7-.7 2.7c.3 0 .1.5-.6 1.2s-1.2 2.2-1.2 3.4c0 1.3-.4 2.6-1 2.9-.5.3-1 1.7-1 3.1 0 1.3-.5 2.4-1.2 2.4-.6 0-.9.3-.5.6.5.5-.5 4-3.3 10.9-.4 1.1-1.9 4.5-3.3 7.5s-2.8 6.6-3.1 8c-.3 1.4-.9 4.1-1.4 6-.4 1.9-.6 5.3-.4 7.5 1 11 .5 23.1-1.1 25.2-.5.7-.7 1.3-.4 1.3.3 0-.3 3-1.4 6.7-1.1 3.8-2.2 8.4-2.5 10.3-.4 1.9-.7 3.9-.9 4.5-.1.5-.6 2.9-1 5.2-.4 2.4-1.2 4.3-1.7 4.3s-.6.5-.3 1c.4.6.1 3.4-.6 6.3s-1.4 6.1-1.5 7.2c-.1 1.1-.3 2-.4 2-.1 0-.3 1-.6 2.2-.2 1.3-.6 3.3-.8 4.5-.3 1.3-.5 2.3-.6 2.3-.2 0-.9 3.4-1.4 7-.3 1.6-.5 3-.6 3-.1 0-.3.8-.5 1.9-.2 1-.9 4.1-1.6 7-.7 2.8-1.4 5.4-1.5 5.8-.1.5-.3 1-.4 1.3-.1.3-.4 1.4-.5 2.5-.1 1.1-.3 2.1-.5 2.2-.1.2-.3 1.2-.5 2.3-.1 1.1-.5 3.1-.9 4.5-1.8 7.3-3 13.2-4 19-.3 1.4-.5 2.5-.6 2.5-.1 0-.3.7-.5 1.5s-.6 2.5-.9 3.7c-.7 2.9-1.5 6.2-2 8.8-.2 1.1-1.2 5.4-2.1 9.5-.9 4.1-1.8 8.6-2 10-.2 1.4-.6 3.5-.9 4.7-1.3 5-1.6 6.4-2.1 8.4-.2 1.1-.7 2.9-1 4-.4 1-.8 2.9-.9 4.2-.2 1.2-.6 2.9-.9 3.7-.3.8-1.3 4.4-2.2 8-.9 3.6-2.5 9.2-3.5 12.5-1 3.3-2.6 8.5-3.4 11.5-3.2 11.4-14.5 24.7-25.6 30.1-3.4 1.7-12.7 1.8-14 .1-.3-.4-1.4-.7-2.5-.7-1.1.1-3.1-.6-4.4-1.4-1.3-.8-3.3-1.7-4.5-1.8-3.7-.6-9.6-3.6-10.1-5.2-.3-.9-2.5-3.8-5-6.4-2.5-2.6-4.5-5.1-4.5-5.5 0-.6-1.1-2-7.2-9.2-.7-.8-1.2-1.9-1-2.4.2-.5-.7-3.2-1.9-6-4.7-10.7-9.8-26.8-8.3-26.2 1.7.7 1.7 1.1-.2-5.5-.9-3-1.7-5.9-1.9-6.4-.1-.6-.5-1.7-.8-2.5-1.5-3.8-3.5-11.9-3-12.3.3-.3 0-2-.6-3.9-1.5-4.8-4.3-15.9-4.8-18.9-.2-1.5-1.5-6.6-2.9-11.5s-2.7-10.9-2.9-13.4c-1-9.9-1.6-14.3-2-15-.2-.4-.7-3.1-1-6.1-.3-3-.8-6.8-1.1-8.4-.4-1.7-.7-4.5-.8-6.2-.1-1.8-.3-3.3-.7-3.3-.3 0-.6-1.9-.8-4.2-.1-2.3-.4-4.4-.6-4.8-.6-.9-1.5-10.1-2-19.8-.2-4.5-.7-8.8-1.1-9.4-.5-.7-.3-.8.6-.3.9.6 1.1.4.5-.4-.4-.7-1-6.5-1.3-13-.8-15.7-.7-73 .1-81.1.4-3.6.9-9.2 1.2-12.5.2-3.3.7-7.8.9-10 1.1-8.2 1.8-15.1 2.1-19.5.2-2.5.4-4.7.5-5 .2-.3.2-.8.1-1.3-.1-.4.3-2.6.8-5 .5-2.3 1.3-6.5 1.6-9.2.4-2.8.8-6.1 1-7.5.3-2.7 1.2-7.9 2-12 .3-1.4.7-3.6 1-5 1.1-6 7.7-31.8 8.8-34.5.6-1.7 1.2-3.5 1.3-4.1.1-.6 1-3.8 2-7 .9-3.3 1.7-6.2 1.6-6.7-.1-.4.2-.7.6-.7.5 0 .9-.6.9-1.3 0-.8 1.3-3.3 3-5.8 1.6-2.4 4.5-7.1 6.2-10.4 3.2-5.9 13.8-17 17.4-18.1.9-.3 1.7-1 1.7-1.5s.3-.8.8-.7c.4.1 2.7-.9 5.2-2.2 2.5-1.2 6.3-2.5 8.5-2.8 2.2-.2 4.2-.6 4.4-.8.2-.1 6.5-.1 14 .1 12.2.4 14.1.7 19.1 3.1zm1497.5 6.4c-.4.6.2.7 1.7.2 2.9-1 6.9-.9 8.6.1.7.5 1.2.4 1.2-.3 0-.6.5-.8 1.1-.4.6.3 3 .8 5.3.9 2.2.2 5.5.9 7.1 1.6 1.7.7 3.3 1.2 3.8 1.1.4-.1.7.2.7.8 0 .5.5 1 1 1 2.1 0 12.9 8.1 16.9 12.8 5.4 6 6.3 7.2 5.6 7.2-.6 0 5.2 9.7 7.2 12.1 1.1 1.3 6.8 15.4 6.3 15.4-.2 0 .2 1.1 2.8 10 1.2 3.8 2.3 8.1 2.6 9.5 1 4.8 4.4 17.9 4.9 18.7.3.5.8 2.9 1.1 5.3.4 2.5 1 6.4 1.5 8.7.5 2.4.6 4.3.4 4.3-.2 0-.1.6.4 1.2.4.7.8 2.2.9 3.3.4 4.5 1.2 10.2 1.9 13.7.4 2 .8 5.4 1 7.5.2 2.1.4 3.8.5 3.8.1 0 .3 1.1.5 2.5.1 1.4.6 5.9 1 10s.9 9.1 1 11c.2 1.9.4 3.5.5 3.5.1 0 .4 2.2.6 5 .1 2.7.6 7.7.9 11 .3 3.3.8 10.3.9 15.5.2 5.2.5 9.9.6 10.5.1.5.1 1.4 0 2-.2 1.1-.2 30.8.1 32.1.1.5.1 1.1 0 1.4-.3.9-1.5 21.9-2.6 47.5-.3 7.6-.6 10-2.1 19-.4 2.2-.8 5.1-1 6.5-.1 1.4-.6 4.3-.9 6.5-.3 2.2-.8 5.1-1 6.5-.2 1.4-.4 2.5-.5 2.5-.1 0-.4 1.3-.5 3-.2 1.6-.6 4.3-.9 6-.4 1.6-.9 5.5-1.2 8.5-.7 9.4-1.3 13-2.1 14.3-.8 1.3-.9 1.5-1.8 6.2-.3 1.6-1.9 8.2-3.5 14.5-2.7 10.8-4 16.4-4.5 20-.5 4-1.8 8.6-2.7 9.7-.6.7-.7 1.3-.4 1.3.4 0 .4.6-.1 1.2-.4.7-.8 1.7-.9 2.3-.6 3-1.4 6.4-2.3 9.2-.7 2.6-.7 3.1.5 2.6 1.4-.5-3 13.5-7.5 23.9-1.1 2.7-1.7 4.8-1.4 4.8.4 0 .2.5-.4 1.1-.6.6-.9 1.7-.6 2.4.2.8-.5 1.9-1.7 2.5-1.2.6-2 1.4-1.7 1.6.3.3-.8 1.9-2.3 3.6-1.6 1.7-3.6 4.5-4.6 6.4-1 1.8-2.7 3.8-3.8 4.4-1.2.6-3 2.5-4.1 4.2-1.3 2.1-3.5 3.6-6.5 4.6-2.5.8-5.6 2-7 2.7-1.4.7-4.1 1.6-6 1.9-4.6.9-5.3 1.1-6.5 1.7-1 .5-3.4.4-7-.5-1.1-.2-2.3-.5-2.7-.5-.3-.1-1.7-1-3-2.1-3.6-3.1-9.8-7.8-10.7-8.2-2-.8-11-17-11.1-20 0-.9-.4-1.9-.9-2.2-.7-.5-2.6-9.1-2-9.1.1 0-.4-1.1-1.1-2.5-1.7-2.9-1.5-2.4-2.5-7.8-.4-2.3-1.2-4.5-1.6-4.8-.5-.3-.7-.9-.4-1.4.3-.5.1-1.8-.5-2.9-.5-1.1-1.2-3.5-1.5-5.3-.2-1.8-.9-5.1-1.5-7.3s-1.3-5.4-1.6-7c-.3-1.7-1-3.7-1.5-4.6-.4-.9-.6-1.9-.3-2.2.3-.3 0-2.5-.6-4.8-1.8-6.6-2.5-9.8-3.5-15.9-.4-2.5-1-5-1.3-5.5-.4-.6-.7-1.6-.9-2.4-.1-.7-.7-3.5-1.3-6.1-1.2-4.8-1.9-8.7-2.4-12.6-.1-1.1-.5-2.4-.8-3-.6-1-1.9-6.6-2.4-9.9-.1-1.1-1.3-6.7-2.7-12.5-5-20.6-6.1-25.5-6.3-28-.1-1.4-.7-4.3-1.3-6.5-.5-2.2-1.2-5.1-1.5-6.5-.2-1.4-1-4.8-1.6-7.5-1.5-6.5-1.9-8.3-2.5-12-.3-1.7-1.3-5.5-2.1-8.5-.9-3-1.7-6-1.8-6.5-.1-.6-.4-1.5-.7-2-1.2-2.1-1.5-15-.7-25 .5-5.9-1.3-13.8-4.9-21.5-1.4-3-3.8-9.3-5.5-14-1.6-4.7-3.3-9.4-3.8-10.5-.4-1.1-1.1-2.9-1.3-4-.3-1.1-1.9-5.7-3.5-10.3-1.7-4.5-2.8-8.2-2.5-8.2.3 0 0-.6-.6-1.4-2.8-3.4-4.6-24.3-2.7-32.6.3-1.4.9-3.9 1.2-5.5.4-1.7 1.1-3.9 1.7-5 .6-1.1 1.2-2.2 1.2-2.5.1-.3 1.2-2.8 2.4-5.5 5.8-12.6 7.6-16.5 10.2-22.9 1.6-3.8 2.9-7.2 2.9-7.7s1.1-3.3 2.5-6.3 2.5-5.7 2.5-5.9c0-.2 1.4-3.5 3.2-7.3 1.7-3.8 3.2-7.1 3.3-7.4.1-.3 1.8-3.9 3.9-8 5-9.8 13.5-20.4 22.3-28.1 3-2.6 16.5-10.9 17.8-10.9 1 0 7.9-3.3 8.5-4 .8-1 5.9-2.2 11.4-2.6 2.7-.2 5.1-.6 5.4-.9.9-.9 1.3-.5.7.5zm-725 140.9c.3.5.2 1.2-.3 1.5-.5.3-.9-.1-.9-.9 0-1.7.3-1.9 1.2-.6zM1001 760c0 .5-.5 1-1.1 1-.5 0-.7-.5-.4-1 .3-.6.8-1 1.1-1 .2 0 .4.4.4 1zm0 6.5c-1.2 1.5-4 1-4-.7 0-.5.4-.7.9-.3.5.3 1.2.1 1.6-.5.4-.6 1.1-.8 1.6-.4.6.4.6 1.1-.1 1.9zm-8.5 5.5c-.3.5-.2 1 .3 1 .6 0 1.3.7 1.6 1.6.5 1.4.4 1.5-.8.5-.8-.7-2-1-2.5-.7-.5.4-1.3.1-1.7-.5-.4-.7-.3-.9.3-.6.6.4 1.3 0 1.7-.8.3-.8.8-1.5 1.1-1.5.4 0 .3.4 0 1zm-10.5 9.9c0 .4-.9 2-2.1 3.5-1.6 2.1-2.4 2.4-3.4 1.6-1.4-1.2-1.7-5.2-.3-4.4.4.3.4 1.2.1 2.2-.6 1.4-.4 1.5.9.5.8-.7 1.7-1 2-.7.3.2.8-.3 1.2-1.2.5-1.2.2-1.5-.9-1-.9.3-1.3.2-1-.4.8-1.2 3.5-1.3 3.5-.1zm-7.5 8.3c.4-.4.3.3-.4 1.5-.6 1.2-1.5 2.5-2.1 2.8-.5.3-.6 1.3-.3 2.2.4 1.1.3 1.4-.6.9-.7-.5-1-1.4-.7-2.2.3-.7-.2-1.7-1.1-2.2-1.1-.6-1.2-1.1-.4-1.6.6-.4 1.1-.1 1.1.6 0 1 .3.9.9-.2.6-.8.7-1.9.3-2.5-.3-.5.1-.4 1 .2.8.7 1.8.9 2.3.5zm-51.9 10.3c-.1.8-.5 1.7-.8 2.1-.5.4-.4-1.6.1-3.4.3-.9.9.1.7 1.3zm4.4 1.5c0 .5-.5 1-1.1 1-.5 0-.7-.5-.4-1 .3-.6.8-1 1.1-1 .2 0 .4.4.4 1zm-4 2.5c-1 1.2-1 1.5.1 1.5.9.1.8.4-.4 1.1-1 .6-1.4 1.5-1 2.2 1.1 1.7 1.4 4.7.5 4.7-1.2 0-3.8-2-2.5-2 .6 0 1-.8.8-1.8-.1-.9.2-2.3.8-3 .5-.6.6-1.2.2-1.2-.4 0-.2-.7.5-1.5s1.5-1.5 1.7-1.5c.3 0 0 .7-.7 1.5zm32 1.1c0 .8-1.9 1.3-2.4.6-.3-.5.1-.9.9-.9s1.5.2 1.5.3zm-28 5c0 .2-.9 0-2-.6s-2-1.3-2-1.6c0-.2.9 0 2 .6s2 1.3 2 1.6zm30-1.1c0 1.1-2.9 1.1-3.3.1-.4-1 .1-1.2 1.4-.9 1 .3 1.9.7 1.9.8zm-8.3 2.9c-.3.6.4 2.7 1.5 4.6 1.2 2.1 1.3 2.7.4 1.6s-1.6-1.5-1.6-.9c0 1.3-2.5 1.1-3.7-.2-.4-.4-.2-.5.5-.1 1.3.8 1.3.7 1.6-3.9.1-2-.3-2.9-1.2-2.7-.8.1-1.1-.2-.7-.8.9-1.4 3.7.8 3.2 2.4zm-3.7 3c0 .3-.4.8-1 1.1-.5.3-1 .1-1-.4 0-.6.5-1.1 1-1.1.6 0 1 .2 1 .4zm-16.3 6.2c-.3.3-1.2.4-1.9.1-.8-.3-.5-.6.6-.6 1.1-.1 1.7.2 1.3.5zm7.3 2.4c0 .5-.5 1-1.1 1-.5 0-.7-.5-.4-1 .3-.6.8-1 1.1-1 .2 0 .4.4.4 1zm1 6c0 .5-.5 1-1.1 1-.5 0-.7-.5-.4-1 .3-.6.8-1 1.1-1 .2 0 .4.4.4 1z"/><path d="M971.6 792.7c-.6 1.4-.5 1.5.5.6.7-.7 1-1.5.7-1.8-.3-.3-.9.2-1.2 1.2zM693.7 374.7c-1 .9-.9 2.3.1 2.3.5 0 .9-.7.9-1.5 0-1.7-.1-1.8-1-.8zM1253 386.1c0 .5.5.7 1 .4.6-.3 1-.8 1-1.1 0-.2-.4-.4-1-.4-.5 0-1 .5-1 1.1zM963.5 467c-.4.6-1.1.7-1.7.4-.7-.4-.8-.2-.4.5.6.9 1.1.9 2.2 0 1.4-1.1 1.8-1.9 1-1.9-.3 0-.8.5-1.1 1zM970.1 472.6c0 1.1.3 1.4.6.6.3-.7.2-1.6-.1-1.9-.3-.4-.6.2-.5 1.3zM1009 750c-.6 1.1-.8 2-.4 2s-.1 1-1.2 2.2c-1.1 1.3-1.3 1.8-.3 1.1 1-.8 1.9-.9 2.5-.3.6.6 1-.4.9-3 0-2.2-.1-4-.2-4s-.7.9-1.3 2zM1006.8 761.2c-.7 1.7 1.5 1.9 2.9.3.4-.4.3-.5-.4-.2-.6.4-1.3.2-1.5-.5-.3-.8-.6-.6-1 .4zM1003 763.4c0 .2.7.7 1.6 1 .8.3 1.2.2.9-.4-.6-1-2.5-1.4-2.5-.6zM992.6 779.5c-1.1.8-1.5 1.5-.9 1.5s1.6-.7 2.3-1.5c1.6-1.9 1.1-1.9-1.4 0zM991.5 784c.3.5.8 1 1.1 1 .2 0 .4-.5.4-1 0-.6-.5-1-1.1-1-.5 0-.7.4-.4 1zM983 786c0 .5.5 1 1 1 .6 0 1-.5 1-1 0-.6-.4-1-1-1-.5 0-1 .4-1 1zM975 795c-.9.6-1 1-.3 1 .6 0 1.5-.5 1.8-1 .8-1.2.4-1.2-1.5 0zM959 810.9c0 .5.7 1.2 1.6 1.5 1.4.5 1.5.4.4-.9-1.4-1.7-2-1.9-2-.6zM955.5 821.1c-.4.6-.5 1.2-.2 1.5.2.3.7-.2 1-1.1.7-1.7.1-2-.8-.4zM927 826c0 .5.5 1 1.1 1 .5 0 .7-.5.4-1-.3-.6-.8-1-1.1-1-.2 0-.4.4-.4 1zM931 826.8c0 .5-.3 1.7-.6 2.5s.1 1.7.9 2c1 .4 1.3-.2 1.3-1.8-.2-2.4-1.6-4.9-1.6-2.7zM949.3 829.5c0 .8.4 1.2.9.9.5-.3.6-1 .3-1.5-.9-1.3-1.2-1.1-1.2.6zM931.6 833.8c-.2.4 0 1.4.6 2.2.8 1.2.9 1.1.4-.4-.5-1.4-.2-1.7.9-1.2.9.3 1.3.2 1-.4-.7-1.2-2.2-1.3-2.9-.2zM944.6 833.8c-.3.5.1.9.9.9s1.2-.4.9-.9c-.3-.4-.7-.8-.9-.8-.2 0-.6.4-.9.8z"/></svg>